<svg xmlns="http://www.w3.org/2000/svg" fill="none" viewBox="0 0 348 348"><path stroke="#000" stroke-width="2" d="M5.08 5.78h336.91v337.67H5.08z"/><ellipse cx="298.29" cy="40.55" stroke="#000" stroke-width="2" rx="15.9" ry="15.51"/><path fill="none" d="M19.213 185.047h235.044v90.348H19.213z" style="fill:#000;fill-opacity:0;stroke:#000;stroke-width:1.81847;stroke-dasharray:none;stroke-opacity:1"/><path fill="none" d="M19.245 94.723h235.044v180.468H19.245z" style="fill:#000;fill-opacity:0;stroke:#000;stroke-width:1.81847;stroke-dasharray:none;stroke-opacity:1"/><rect width="234.91" height="62.781" x="19.749" y="17.462" fill="none" ry="0" style="fill:#000;fill-opacity:0;stroke:#000;stroke-width:2;stroke-dasharray:none;stroke-opacity:1"/><path fill="none" d="M32.55 24.349h49.546v48.249H32.55z" style="fill:#000;fill-opacity:0;stroke:#000;stroke-width:1.85191;stroke-dasharray:none;stroke-opacity:1"/><rect width="181.095" height="62.884" x="-275.562" y="267.983" fill="none" ry="0" style="fill:#000;fill-opacity:0;stroke:#000;stroke-width:1.75747;stroke-dasharray:none;stroke-opacity:1" transform="rotate(-90)"/><path fill="none" d="M-268.236 275.806h163.947v46.48h-163.947z" style="fill:#000;fill-opacity:0;stroke:#000;stroke-width:1.81847;stroke-dasharray:none;stroke-opacity:1" transform="rotate(-90)"/><path fill="none" d="M139.75 24.371h49.546V72.62H139.75zM193.156 24.375h49.546v48.249h-49.546zM85.948 24.349h49.546v48.249H85.948z" style="fill:#000;fill-opacity:0;stroke:#000;stroke-width:1.85191;stroke-dasharray:none;stroke-opacity:1"/><path fill="none" d="M139.353 269.299 26.875 200.765-85.604 132.23 29.987 69.09 145.58 5.946l-3.113 131.676Z" style="fill:#000;fill-opacity:0;stroke:#000;stroke-width:10.3387;stroke-dasharray:none;stroke-opacity:1" transform="matrix(-.00638 -.13058 .25385 -.00328 108.036 312.171)"/><path fill="none" d="M261.983 294.763h72.478v30.052h-72.478z" style="fill:#000;fill-opacity:0;stroke:#000;stroke-width:2;stroke-dasharray:none;stroke-opacity:1"/><g aria-label="Submit" style="font-weight:700;font-size:13.3333px;-inkscape-font-specification:&quot;sans-serif, Bold&quot;;text-align:center;text-anchor:middle;fill:#000;stroke-width:2"><path d="M281.022 311.417q0 1.433-1.218 2.331-1.21.892-3.294.892-1.204 0-2.103-.208-.892-.215-1.673-.54v-2.325h.274q.774.619 1.731.95.964.333 1.85.333.227 0 .598-.04.371-.039.606-.13.286-.117.469-.293.188-.175.188-.52 0-.32-.273-.547-.267-.235-.788-.358-.547-.13-1.159-.241-.605-.118-1.139-.293-1.224-.397-1.764-1.075-.534-.683-.534-1.692 0-1.354 1.21-2.207 1.218-.86 3.126-.86.957 0 1.888.19.937.181 1.62.461v2.233h-.266q-.586-.468-1.439-.78-.846-.32-1.732-.32-.312 0-.625.046-.306.039-.592.156-.254.098-.436.3-.183.195-.183.449 0 .384.293.592.293.202 1.107.371.534.111 1.022.215.495.104 1.061.287 1.114.364 1.641.996.534.625.534 1.627zM289.89 314.464h-2.345v-.807q-.65.495-1.191.755-.54.254-1.29.254-1.21 0-1.868-.697-.65-.696-.65-2.057v-4.759h2.356v3.626q0 .554.033.925.039.364.169.605.124.241.371.352.254.11.703.11.3 0 .664-.11.365-.11.703-.326v-5.182h2.344zM299.733 310.708q0 1.725-.957 2.812-.95 1.087-2.377 1.087-.611 0-1.074-.13-.462-.13-.879-.377l-.097.364h-2.246v-10.13h2.343v3.58q.54-.429 1.1-.696.567-.267 1.303-.267 1.386 0 2.135 1.003.749.996.749 2.754zm-2.416.045q0-.976-.332-1.504-.332-.527-1.184-.527-.333 0-.684.104-.352.098-.67.287v3.672q.253.09.481.123.228.033.547.033.931 0 1.387-.547.455-.547.455-1.64zM308.574 309.282v5.182h-2.357v-3.652q0-.534-.026-.905-.026-.378-.143-.612-.117-.234-.358-.339-.235-.11-.664-.11-.345 0-.67.143-.326.137-.587.293v5.182h-2.343v-7.311h2.343v.807q.606-.475 1.16-.742.553-.267 1.223-.267.723 0 1.276.326.554.319.866.944.703-.593 1.367-.931.664-.339 1.302-.339 1.185 0 1.797.71.619.71.619 2.044v4.76h-2.357v-3.653q0-.54-.026-.912-.02-.37-.137-.605-.11-.234-.351-.339-.241-.11-.677-.11-.293 0-.573.104-.28.098-.684.332zM317.877 314.464h-2.343v-7.311h2.343zm.065-8.353h-2.474v-1.777h2.474zM324.765 314.4q-.377.097-.8.149-.424.058-1.036.058-1.367 0-2.037-.553-.664-.553-.664-1.895v-3.417h-.964v-1.589h.964v-2.09h2.343v2.09h2.194v1.589h-2.194v2.59q0 .385.007.671.007.287.104.515.092.227.32.364.234.13.677.13.182 0 .475-.078.3-.078.416-.143h.196z"/></g></svg>