<?xml version="1.0" encoding="UTF-8" standalone="no"?>
<svg
   fill="none"
   viewBox="0 0 348 348"
   version="1.1"
   id="svg6"
   sodipodi:docname="Maze.svg"
   inkscape:version="1.2.2 (732a01da63, 2022-12-09)"
   xmlns:inkscape="http://www.inkscape.org/namespaces/inkscape"
   xmlns:sodipodi="http://sodipodi.sourceforge.net/DTD/sodipodi-0.dtd"
   xmlns="http://www.w3.org/2000/svg"
   xmlns:svg="http://www.w3.org/2000/svg">
  <sodipodi:namedview
     id="namedview16"
     pagecolor="#ffffff"
     bordercolor="#111111"
     borderopacity="1"
     inkscape:showpageshadow="0"
     inkscape:pageopacity="0"
     inkscape:pagecheckerboard="1"
     inkscape:deskcolor="#d1d1d1"
     showgrid="false"
     inkscape:zoom="1.2025862"
     inkscape:cx="-178.36559"
     inkscape:cy="-26.609319"
     inkscape:window-width="1920"
     inkscape:window-height="1017"
     inkscape:window-x="-8"
     inkscape:window-y="-8"
     inkscape:window-maximized="1"
     inkscape:current-layer="svg6" />
  <defs
     id="defs10">
    <clipPath
       clipPathUnits="userSpaceOnUse"
       id="clipPath5973">
      <path
         id="path5975"
         style="fill:#ff0000;fill-opacity:1;fill-rule:nonzero;stroke:none"
         d="M 3.9550781,4.2539062 V 264.97656 H 343.11523 V 4.2539062 Z M 144.56836,29.138672 c 0.19551,-0.0044 0.39267,0.0065 0.58789,0.0039 0.45062,0.0078 0.90097,0.02926 1.35156,0.03516 0.54089,0.01062 1.08033,0.0426 1.6211,0.05664 0.51522,0.01496 1.02978,0.014 1.54492,0.0332 0.63392,0.02883 1.26809,0.06484 1.89844,0.140625 0.68084,0.0592 1.3624,0.119656 2.04687,0.103516 0.66958,0.0014 1.34036,0.0035 2.00977,-0.01367 0.50133,-0.01683 1.00153,-0.0453 1.5,-0.103516 0.33584,-0.02945 0.67225,-0.0553 1.00781,-0.08789 0.39525,-0.03838 0.7888,-0.08596 1.18555,-0.107422 1.00941,-0.05644 2.02035,-0.06214 3.03125,-0.05664 h 1.16015 V 29.8457 h 0.66406 c -0.008,0.209985 -0.0321,0.418867 -0.0391,0.628906 0.002,0.141416 -0.0212,0.281056 -0.0312,0.421875 -0.01,0.260302 -0.005,0.520819 -0.004,0.78125 -0.007,0.238234 -0.0301,0.474644 -0.0371,0.712891 -0.002,0.149716 -5.3e-4,0.299495 0,0.449219 6.7e-4,0.255341 0.002,0.512228 0.002,0.767578 -8e-5,0.368609 -0.002,0.73686 -0.002,1.105469 v 1.023437 c -0.0105,0.289998 -0.0301,0.580962 -0.0371,0.871094 l -0.91797,-0.02344 c 0.003,-0.132804 0.0113,-0.265591 0.0176,-0.398437 -0.0427,0.0042 -0.0585,0.0054 -0.12305,0.01172 -0.1332,-1e-5 -0.26704,-3e-5 -0.40039,0 l 0.0293,4.746093 c -0.25141,8.6e-4 -0.5031,-0.0019 -0.75391,-0.02148 -0.44956,-0.03563 -0.68216,-0.07568 -1.10352,-0.09766 -0.0885,-0.0082 -0.17712,-0.01474 -0.26562,-0.02344 -0.0482,-0.0048 -0.10953,0.01805 -0.14453,-0.01563 l 0.002,-0.002 c -0.16037,-0.0011 -0.32202,0.01493 -0.48047,0.002 -0.92978,0.02426 -1.8571,0.09655 -2.7832,0.181641 -1.46694,0.129931 -2.9374,0.200185 -4.40235,0.351562 -0.72713,0.0968 -1.45269,0.217572 -2.18164,0.300782 -1.15214,0.131528 -2.3099,0.203741 -3.46875,0.238281 -1.6216,0.01923 -2.13272,0.04322 -3.80273,-0.02148 -2.50456,-0.09704 -4.99455,-0.379252 -7.48438,-0.652344 -0.83817,-0.08279 -1.3063,-0.146395 -2.11523,-0.171875 -0.72645,-0.02292 -1.45499,0.01464 -2.18164,-0.0059 -1.00061,-0.0059 -2.00174,-0.01148 -3.00195,0.02344 -0.92093,0.04157 -1.83979,0.120874 -2.75977,0.177734 l -0.36914,-4.820312 c -0.18828,0.02828 -0.37612,0.05996 -0.56641,0.07422 -0.17823,0.009 -0.43025,0.03207 -0.59375,-0.0293 -0.0797,-0.02992 -0.16089,-0.06287 -0.23828,-0.101563 0.018,0.438159 0.0339,0.876411 0.0527,1.314453 l -0.91797,0.03906 c -0.0444,-1.032065 -0.0875,-2.065249 -0.12305,-3.097656 -0.0149,-0.480034 -0.0316,-0.959375 -0.0449,-1.439454 -0.0302,-1.088371 -0.0417,-2.178181 -0.0996,-3.265625 l 0.91406,-0.101562 c 10e-4,0.0195 6.3e-4,0.03909 0.002,0.05859 0.0353,-0.01036 0.0744,-0.02504 0.10546,-0.0332 0.0246,-0.0046 0.0497,-0.0089 0.0742,-0.01367 v -0.09766 c 0.2909,0.0074 0.58008,0.02845 0.8711,0.03711 0.008,-0.0024 0.0157,-0.0053 0.0234,-0.0078 0.2085,-0.06727 0.42556,-0.09569 0.64062,-0.132812 0.47239,-0.09659 0.95373,-0.152776 1.43359,-0.197266 0.87212,-0.07191 1.74569,-0.116088 2.6211,-0.103516 0.85351,-0.0012 1.70711,-0.006 2.56054,-0.0039 0.71965,0.0068 1.4374,0.03454 2.15625,0.06641 0.9622,0.0437 1.92517,0.09232 2.88868,0.0918 0.5494,-0.0069 1.09958,-0.01523 1.64843,-0.04297 0.44268,-0.02238 0.62676,-0.03852 1.06836,-0.07031 0.16954,-0.0122 0.34022,-0.02511 0.50977,-0.03711 0.39062,-0.02486 0.54844,-0.04185 0.92969,-0.03516 0.34745,0.0061 0.6954,0.06105 1.0332,0.138672 0.19089,0.05378 0.37291,0.135059 0.55664,0.210938 0.2777,-0.170509 0.58643,-0.285973 0.92187,-0.365234 0.27006,-0.05207 0.31511,-0.06615 0.60743,-0.0918 0.065,-0.0057 0.13014,-0.01026 0.19531,-0.01172 z m -19.08398,3.36914 c -0.0122,0.0054 -0.0251,0.0098 -0.0371,0.01563 -0.001,7.92e-4 -0.004,0.0066 -0.002,0.0059 0.0136,-0.0066 0.0264,-0.01333 0.0391,-0.02148 z m 19.12695,0.310547 c -0.0207,9.43e-4 -0.049,-5.49e-4 -0.0586,0.002 -0.005,0.0012 0.0206,0.0038 0.0156,0.0059 -0.0233,0.0097 -0.0496,0.01363 -0.0742,0.01953 -0.005,0.0037 -0.0216,0.01052 -0.0156,0.0098 0.0391,-0.0056 0.0879,-0.01947 0.13281,-0.03711 z m 0.79492,0.619141 c 0.003,0.01429 0.006,0.02892 0.01,0.04297 0.001,0.0078 -0.002,-0.01779 -0.004,-0.02539 -0.002,-0.0059 -0.004,-0.01166 -0.006,-0.01758 z m -20.04102,0.158203 c 0.003,0.01497 0.007,0.02997 0.01,0.04492 -0.002,-0.02429 -0.003,-0.03482 -0.004,-0.04492 -0.002,-3.1e-5 -0.004,3.3e-5 -0.006,0 z m -0.12695,1.78125 c -1.8e-4,0.01546 -6e-4,0.03144 0,0.04687 1.5e-4,0.01375 0.007,-0.02816 0.002,-0.04102 -7.2e-4,-0.0019 -7e-4,-0.004 -0.002,-0.0059 z m -68.296874,72.949217 2.498047,0.71485 c 0.04786,-0.38366 0.07914,-0.32922 0.0293,-0.59766 -0.0058,-0.0313 -0.03793,-0.0635 -0.02344,-0.0918 0.0096,-0.0188 0.03804,0.0173 0.05664,0.0273 0.05345,0.0284 0.107226,0.0566 0.160156,0.0859 0.105449,0.0585 0.209202,0.11894 0.314453,0.17774 0.750377,0.43582 1.552441,0.6299 2.396485,0.78515 2.121651,0.32179 4.257,0.56031 6.394531,0.7461 2.354066,0.15262 4.714808,0.13416 7.072266,0.10156 2.000439,-0.0106 3.997746,-0.13205 5.99414,-0.24609 1.588009,-0.0947 3.177361,-0.13527 4.767578,-0.16797 l 0.01367,0.6582 c 1.470832,-0.005 2.942866,-0.0119 4.41211,-0.0703 l 0.144531,2.5957 c -1.915064,0.0784 -3.833527,0.0691 -5.75,0.0781 -1.638761,0.007 -3.277206,0.0126 -4.916016,0.0156 l -0.002,-0.45508 c -1.542032,0.0853 -3.083849,0.18112 -4.628906,0.18946 -2.444579,0.0335 -4.89319,0.0534 -7.333984,-0.10938 -2.222547,-0.19386 -4.441184,-0.44111 -6.646485,-0.78125 -0.562265,-0.10722 -0.752682,-0.13042 -1.285156,-0.28125 -0.396057,-0.11217 -0.759805,-0.30709 -1.134766,-0.47461 -3.598798,-0.0191 -7.197657,-0.0384 -10.796875,-0.0547 l -0.02148,0.77929 c -0.527164,-0.0146 -1.054616,-0.0288 -1.582031,-0.0293 -0.224884,-0.005 -0.449112,-0.0239 -0.673828,-0.0313 0.0581,0.10116 0.09463,0.20567 0.11914,0.33985 0.01581,0.13579 0.01689,0.27035 0.01563,0.40625 h 2.121094 c -0.02216,1.68508 0.02946,3.3687 0.08008,5.05273 0.05469,1.50716 0.114881,3.01614 0.238281,4.51953 0.08119,0.98915 0.155405,1.66984 0.25586,2.66602 0.211654,2.15708 0.421559,4.31356 0.564453,6.47656 0.10283,1.55656 0.109482,1.97331 0.169922,3.50586 0.07084,2.53054 -0.01,5.06001 -0.119141,7.58789 -0.04727,1.62745 -0.178409,3.25069 -0.308594,4.87305 -0.07862,0.97481 -0.271252,1.93244 -0.476562,2.88672 0.04836,0.13985 0.02292,0.40793 -0.0293,1.13476 -7.69e-4,0.0108 -0.113653,0.0156 -0.216797,0.0254 -0.06688,0.30234 -0.137674,0.60933 -0.193359,0.89454 -0.0024,0.013 -0.0029,0.0262 -0.0059,0.0391 -0.0011,0.005 -6e-4,-0.0105 0,-0.0156 0.0015,-0.007 0.0044,-0.0159 0.0059,-0.0234 0.01248,-0.0672 0.01927,-0.13498 0.02539,-0.20313 l -7.341796,-0.33984 c 0.0036,-0.058 0.01115,-0.11588 0.01562,-0.17383 -0.324234,0.009 -0.648388,0.0191 -0.972656,0.0273 -0.161081,0.004 -0.322681,-0.004 -0.484375,0 l -2.927734,0.62891 c -0.365624,-1.88314 -0.388272,-3.80948 -0.419922,-5.7207 -0.0099,-2.86936 -0.03503,-5.73804 -0.01953,-8.60743 0.0036,-0.60635 0.0088,-1.212 0.0098,-1.81836 0.0024,-1.42958 1.4e-5,-2.51327 -0.04297,-3.94531 -0.04856,-1.61777 -0.154531,-3.23151 -0.267579,-4.8457 -0.03536,-0.3857 -0.06853,-0.77265 -0.105468,-1.1582 -0.106294,-1.10929 -0.117441,-1.08315 -0.212891,-2.22266 -0.08196,-0.97834 -0.143559,-1.95739 -0.199219,-2.9375 -0.06846,-1.27522 -0.06558,-2.55315 -0.002,-3.82813 0.05067,-0.87274 0.163608,-1.73819 0.296875,-2.60156 0.103519,-0.68991 0.324658,-1.35263 0.539063,-2.01367 0.04823,-0.19424 -0.0042,0.0123 0.105469,-0.35742 0.0039,-0.0131 0.01384,-0.0521 0.0098,-0.0391 -0.01238,0.0396 -0.04276,0.15994 -0.03516,0.11914 0.0078,-0.0418 0.04685,-0.20182 0.07227,-0.3086 l 3.414063,0.67383 c 0.01013,-0.0897 0.01227,-0.17984 0.02344,-0.26953 0.04098,-0.37447 0.07084,-0.75152 0.146485,-1.12109 l 0.09766,0.0137 c 0.03645,-0.0373 0.07085,-0.0762 0.111328,-0.10938 0.02269,-0.0162 0.04583,-0.0321 0.06836,-0.0488 -0.312466,-0.006 -0.625143,-0.007 -0.9375,-0.0156 v -1.29883 c 2.958973,0.0765 5.91912,0.10691 8.878906,0.13281 2.994097,0.0135 5.988406,0.0305 8.982422,0.0469 -0.1202,-0.13725 -0.267497,-0.24597 -0.353516,-0.41797 -0.07742,-0.1548 -0.147332,-0.31863 -0.169922,-0.49023 -0.02972,-0.22573 0.01073,-0.45597 0.01563,-0.6836 z m 187.875004,1.45508 c 0.68697,0.002 1.37423,0.0199 2.06054,0.0606 v 1.29882 c -0.0976,-0.003 -0.19537,-0.006 -0.29297,-0.01 -0.0736,-0.003 -0.14711,0.001 -0.2207,-0.004 l 0.002,0.002 c 0.0532,0.11741 0.0564,0.29361 0.0664,0.41992 0.006,0.46679 -0.11042,0.92332 -0.19726,1.3789 -0.0542,0.34961 -0.129,0.69516 -0.1504,1.04883 -0.0347,0.31359 -0.0323,0.63032 -0.0332,0.94532 0.002,0.47731 -0.009,0.95504 0.0254,1.43164 0.0333,0.50661 0.0688,1.01288 0.10156,1.51953 0.0246,0.49889 0.0351,0.99743 0.0645,1.49609 0.0204,0.36191 0.0431,0.72378 0.0586,1.08594 0.003,0.0984 0.008,0.19659 0.0117,0.29492 0.0397,0.01 0.0796,0.0189 0.11914,0.0293 -0.004,0.006 -0.008,0.0112 -0.0117,0.0195 0.0281,0.005 0.0558,0.01 0.084,0.0137 -0.005,-0.009 -0.009,-0.0132 -0.0137,-0.0195 0.0466,0.008 0.12295,-0.005 0.1211,0.0371 -0.04,0.93305 0.12033,0.92362 -0.24414,0.89062 -0.005,-7.9e-4 -0.0104,1.5e-4 -0.0156,-0.002 0.004,0.0983 0.007,0.19661 0.0117,0.29492 0.0225,0.48759 0.0244,0.97686 0.0234,1.46485 0.008,0.43148 -0.0221,0.86099 -0.0527,1.29101 -0.0424,0.35715 -0.0615,0.71479 -0.0644,1.07422 -0.0145,0.38854 -0.0294,0.77781 -0.0508,1.16602 -0.0295,0.42846 -0.0526,0.85763 -0.0586,1.28711 0.003,0.10625 -0.004,0.21243 -0.0117,0.31835 0.0411,0.19296 0.079,0.38701 0.10937,0.58204 0.0327,0.1802 0.0761,0.36303 0.0801,0.54687 0.007,0.27449 -0.0571,0.54468 -0.13867,0.80469 -0.049,0.12629 -0.0926,0.25354 -0.14844,0.37695 -0.018,0.0399 -0.0395,0.0779 -0.0586,0.11719 0.26739,0.22496 0.18272,0.35191 0.0957,0.62695 -0.13144,0.21139 3.8e-4,0.003 -0.13672,0.2168 -0.0178,0.0278 -0.0302,0.06 -0.0527,0.084 -0.007,0.008 -0.0255,-0.0296 -0.0273,0.004 -0.001,0.0232 0.002,0.0453 0.004,0.0684 0.0227,0.17017 0.0499,0.33958 0.084,0.50781 0.0581,0.26794 0.0897,0.54004 0.0957,0.81445 h -0.33789 c 0.0876,0.12602 0.21859,0.21611 0.29297,0.34961 0.0327,0.0738 0.068,0.14756 0.0976,0.22266 0.12111,0.30771 0.18809,0.6379 0.21289,0.9668 0.003,0.28021 0.008,0.55974 -0.004,0.83984 -0.0224,0.39025 -0.0754,0.77731 -0.11524,1.16602 -0.0533,0.43177 -0.0987,0.8672 -0.0937,1.30273 0.005,0.40069 0.0197,0.79989 0.0547,1.19922 0.01,0.25255 0.0425,0.5035 0.0527,0.75586 0.0159,0.34264 0.0608,0.68378 0.0508,1.02734 -7.3e-4,0.25583 -0.004,0.51176 -0.002,0.76758 0.006,0.17494 0.0378,0.34552 0.0547,0.51953 0,0.14494 0.001,0.29062 -0.002,0.43555 -0.001,0.12046 -0.003,0.24099 0.004,0.36133 0.0363,0.16526 0.0589,0.33034 0.0488,0.5 -1.1e-4,0.11154 -2.5e-4,0.2244 0.002,0.33593 0.001,0.1412 0.004,0.28266 0,0.42383 -0.008,0.13055 -0.0193,0.26383 -0.0508,0.39063 -0.003,0.21632 -0.0108,0.43272 -0.0469,0.64648 -0.004,6.8e-4 -0.003,0.48619 -0.006,0.52539 -0.011,0.27819 -0.0407,0.55394 -0.0742,0.83008 -0.004,0.0306 -0.0303,0.15471 -0.0312,0.19531 -0.005,0.10397 0.005,0.20848 0,0.3125 -7.8e-4,0.16557 -0.005,0.33055 0,0.4961 0.008,0.17632 0.0399,0.35108 0.0469,0.52734 0.006,0.14652 0.084,0.27537 0.0957,0.42188 0.0235,0.224 0.0264,0.45077 0.0137,0.67578 -0.0235,0.25214 -0.0734,0.50061 -0.17383,0.73437 0.17182,-0.008 0.34362,-0.0166 0.51563,-0.0195 v 1.29883 c -0.27732,0.007 -0.55462,0.0302 -0.83204,0.0332 -0.2004,0.002 -0.35386,-0.0115 -0.5332,-0.0117 -0.0197,0.25227 -0.0422,0.5045 -0.0723,0.75586 l -6.89844,-0.96484 c -0.12435,-0.005 -0.2487,-0.009 -0.37305,-0.0137 -0.001,0.0122 -0.003,0.0106 -0.004,0 -0.56836,-0.0208 -1.13668,-0.0423 -1.70508,-0.0625 -1.87716,-0.0692 -3.75642,-0.13139 -5.63281,-0.21289 l 0.0566,-1.29688 c 1.87299,0.0815 3.74734,0.14174 5.62109,0.21094 0.57686,0.0206 1.15366,0.0415 1.73047,0.0625 0.007,-0.17385 0.0152,-0.34736 0.0176,-0.52149 0.0303,-0.9674 0.0371,-1.93505 -0.01,-2.90234 -0.0242,-0.61833 -0.0266,-1.23688 -0.0176,-1.85547 -0.039,-1.47278 -0.23753,-2.93443 -0.29883,-4.40625 -0.0781,-1.52881 -0.14427,-3.05712 -0.17187,-4.58789 -0.0392,-2.1747 -0.009,-1.31781 -0.0215,-3.37695 -0.003,-0.52814 -0.0116,-1.05588 -0.0176,-1.58399 -0.0868,-3.16571 -0.24605,-6.33052 -0.24805,-9.49804 0.006,-2.43583 -0.004,-4.87388 0.0762,-7.3086 h 3.19336 c 0.005,-0.19333 0.005,-0.38674 0.0117,-0.58008 0.0129,-0.31634 0.0124,-0.63242 0.0117,-0.94921 -0.001,-0.34717 -0.002,-0.69384 -0.002,-1.04102 0.005,-0.0822 0.008,-0.15624 0.0156,-0.22656 -1.41611,0.0822 -2.83269,0.15493 -4.25,0.21289 l -0.0527,-1.29883 c 1.61634,-0.066 3.23262,-0.14359 4.84765,-0.24219 0.55149,-0.0283 1.10255,-0.0633 1.6543,-0.0859 0.68677,-0.0281 1.37357,-0.0425 2.06055,-0.041 z m -122.3125,115.23047 h 0.91797 c 2.9e-4,0.35739 0.002,0.14717 0.002,0.625 -3e-4,1.42743 -0.005,2.85543 -0.01,4.2832 0.0738,-0.0282 0.14111,-0.033 0.25586,-0.0469 0.27608,-0.003 0.55207,0.009 0.82813,0.0117 0.043,3.6e-4 0.0859,-2.5e-4 0.1289,0 l 0.23438,-0.93555 c -0.62619,-0.1148 -0.45234,-0.0485 -0.15625,-0.0332 0.26468,0.0213 0.5212,0.0137 0.78906,0.0137 0.85064,-2e-4 1.70058,0.011 2.55078,0.0391 0.778,0.0383 1.09542,0.037 1.84375,0.12891 0.48381,0.0594 0.80388,0.12492 1.27149,0.23828 0.0337,0.008 -0.10947,-0.0138 -0.10547,-0.002 0.27978,0.0514 0.72838,0.0579 0.99804,0.0703 1.00768,0.0462 2.01687,0.0535 3.02539,0.0625 3.22259,-0.006 6.44446,-0.0121 9.66602,-0.0996 1.96859,-0.0816 2.23311,-0.0825 4.25977,-0.21094 2.76701,-0.17537 5.52703,-0.42367 8.29297,-0.61328 0.88958,-0.0406 1.78103,-0.0795 2.67187,-0.0937 0.89084,-0.0142 1.7821,-0.003 2.67187,0.0566 l -0.0352,0.43164 c 0.11984,-0.0125 0.20258,-0.0228 0.29297,-0.0332 -8.8e-4,-2.6e-4 -0.002,0.0294 -0.1211,-2.31836 l 0.91797,-0.0469 c 0.20918,4.12704 -0.0237,-0.43072 0.21094,4.0586 0.0571,1.09226 0.14965,2.82093 0.18555,3.93945 0.0286,0.88905 0.0222,0.96355 0.0117,1.64062 h -0.91797 c 0.002,-0.15667 -0.004,-0.26737 -0.002,-0.37695 h -0.625 v -0.24609 c -0.0433,0.007 -0.0872,0.016 -0.13086,0.0215 -0.12509,0.0145 -0.25111,0.007 -0.37695,0.004 l -0.0215,0.25 c -1.46413,-0.0807 -2.92964,-0.0119 -4.39258,0.0566 -2.70834,0.19223 -5.41319,0.42961 -8.12305,0.60156 -2.12985,0.13511 -2.38713,0.13576 -4.46289,0.22266 -3.31871,0.0935 -6.63918,0.0995 -9.95898,0.10547 -1.63461,-0.024 -3.27677,-0.008 -4.9043,-0.1836 -0.16277,-0.0282 -0.32689,-0.0488 -0.48828,-0.084 -0.18536,-0.0405 -0.36613,-0.099 -0.55078,-0.14258 -0.022,-0.006 -0.0459,-0.002 -0.0684,-0.004 -0.0877,-0.01 -0.17382,-0.0252 -0.26172,-0.0332 -0.41108,-0.0385 -0.67012,-0.0406 -1.10938,-0.0586 -1.15591,-0.057 -2.31355,0.006 -3.46875,-0.0606 -0.39277,-0.0249 -0.78329,-0.0793 -1.16601,-0.17188 l 0.0566,-0.22265 -0.75781,-0.0762 c 0.0354,-0.33086 0.0553,-0.48998 0.0742,-0.85742 0.0245,-0.47863 0.0331,-1.13679 0.0371,-1.60547 0.005,-0.63709 0.003,-1.27502 0.006,-1.91211 0.011,-1.92262 0.0132,-3.84493 0.0137,-5.76758 -1.9e-4,-0.47696 4.7e-4,-0.26864 0,-0.625 z" />
    </clipPath>
    <clipPath
       clipPathUnits="userSpaceOnUse"
       id="clipPath5983">
      <path
         id="path5985"
         style="fill:#ff0000;fill-opacity:1;fill-rule:nonzero;stroke:none"
         d="m 40.740234,30.345703 v 79.417967 c 2.574978,0.0567 5.15106,0.0849 7.726563,0.10742 2.994097,0.0135 5.988406,0.0305 8.982422,0.0469 -0.1202,-0.13725 -0.267497,-0.24597 -0.353516,-0.41797 -0.07742,-0.1548 -0.147332,-0.31863 -0.169922,-0.49023 -0.02972,-0.22573 0.01073,-0.45597 0.01563,-0.6836 l 2.498047,0.71485 c 0.04786,-0.38366 0.07914,-0.32922 0.0293,-0.59766 -0.0058,-0.0313 -0.03793,-0.0635 -0.02344,-0.0918 0.0096,-0.0188 0.03804,0.0173 0.05664,0.0273 0.05345,0.0284 0.107226,0.0566 0.160156,0.0859 0.105449,0.0585 0.209202,0.11894 0.314453,0.17774 0.750377,0.43582 1.552441,0.6299 2.396485,0.78515 2.121651,0.32179 4.257,0.56031 6.394531,0.7461 2.354066,0.15262 4.714808,0.13416 7.072266,0.10156 2.000439,-0.0106 3.997746,-0.13205 5.99414,-0.24609 1.588009,-0.0947 3.177361,-0.13527 4.767578,-0.16797 l 0.01367,0.6582 c 1.470832,-0.005 2.942866,-0.0119 4.41211,-0.0703 l 0.144531,2.5957 c -1.915064,0.0784 -3.833527,0.0691 -5.75,0.0781 -1.638761,0.007 -3.277206,0.0126 -4.916016,0.0156 l -0.002,-0.45508 c -1.542032,0.0853 -3.083849,0.18112 -4.628906,0.18946 -2.444579,0.0335 -4.89319,0.0534 -7.333984,-0.10938 -2.222547,-0.19386 -4.441184,-0.44111 -6.646485,-0.78125 -0.562265,-0.10722 -0.752682,-0.13042 -1.285156,-0.28125 -0.396057,-0.11217 -0.759805,-0.30709 -1.134766,-0.47461 -3.598798,-0.0191 -7.197657,-0.0384 -10.796875,-0.0547 l -0.02148,0.77929 c -0.0013,-3e-5 -0.0026,4e-5 -0.0039,0 0.0083,1.24642 0.04653,2.49218 0.08398,3.73828 0.05469,1.50716 0.114881,3.01614 0.238281,4.51953 0.08119,0.98915 0.155405,1.66984 0.25586,2.66602 0.211654,2.15708 0.421559,4.31356 0.564453,6.47656 0.10283,1.55656 0.109482,1.97331 0.169922,3.50586 0.07084,2.53054 -0.01,5.06001 -0.119141,7.58789 -0.04727,1.62745 -0.178409,3.25069 -0.308594,4.87305 -0.097,1.20279 -0.359686,2.38085 -0.617187,3.55664 -0.09612,0.39778 -0.177314,0.79314 -0.253906,1.17578 0.616078,-0.006 0.459237,-0.0195 0.365234,1.28906 -0.0016,0.0224 -0.413042,0.0497 -0.451172,0.0527 -0.189257,0.016 -0.378833,0.0288 -0.568359,0.041 l -0.0039,-0.0742 c -1.047173,0.0214 -2.093611,0.0599 -3.140624,0.0879 -1.375708,0.0397 -2.751201,0.0778 -4.126954,0.11328 v 83.77148 h 81.677737 c 0.0106,-0.11842 0.0206,-0.24026 0.0293,-0.41015 0.0245,-0.47863 0.0331,-1.13679 0.0371,-1.60547 0.005,-0.63709 0.003,-1.27502 0.006,-1.91211 0.011,-1.92262 0.0132,-3.84493 0.0137,-5.76758 -1.9e-4,-0.47696 4.7e-4,-0.26864 0,-0.625 h 0.91797 c 2.9e-4,0.35739 0.002,0.14717 0.002,0.625 -3e-4,1.42743 -0.005,2.85543 -0.01,4.2832 0.0738,-0.0282 0.14111,-0.033 0.25586,-0.0469 0.15236,-0.002 0.3047,0.002 0.45703,0.006 l 0.73438,-2.92969 c -0.62619,-0.1148 -0.45234,-0.0485 -0.15625,-0.0332 0.26468,0.0213 0.5212,0.0137 0.78906,0.0137 0.85064,-2e-4 1.70058,0.011 2.55078,0.0391 0.778,0.0383 1.09542,0.037 1.84375,0.12891 0.48381,0.0594 0.80388,0.12492 1.27149,0.23828 0.0337,0.008 -0.10947,-0.0138 -0.10547,-0.002 0.27978,0.0514 0.72838,0.0579 0.99804,0.0703 1.00768,0.0462 2.01687,0.0535 3.02539,0.0625 3.22259,-0.006 6.44446,-0.0121 9.66602,-0.0996 1.96859,-0.0816 2.23311,-0.0825 4.25977,-0.21094 2.76701,-0.17537 5.52703,-0.42367 8.29297,-0.61328 0.88958,-0.0406 1.78103,-0.0795 2.67187,-0.0937 0.89084,-0.0142 1.7821,-0.003 2.67187,0.0566 l -0.26953,3.22266 c 0.0163,-0.0112 0.0333,-0.0215 0.0488,-0.0332 0.0462,-0.15487 0.0986,-0.30664 0.125,-0.46679 0.003,-0.0145 0.0506,-0.29021 0.0586,-0.29102 0.12113,-0.0126 0.20394,-0.0227 0.29492,-0.0332 -8.8e-4,-2.6e-4 -0.002,0.0294 -0.1211,-2.31836 l 0.91797,-0.0469 c 0.20918,4.12704 -0.0237,-0.43072 0.21094,4.0586 0.0571,1.09226 0.14965,2.82093 0.18555,3.93945 0.0122,0.37999 0.0177,0.60191 0.0195,0.79492 h 81.61523 V 151.6074 c -1.32742,0.0106 -2.12142,-0.0317 -3.60937,-0.084 -1.9585,-0.0688 -3.91653,-0.14319 -5.875,-0.21289 -1.87716,-0.0692 -3.75642,-0.13139 -5.63281,-0.21289 l 0.0566,-1.29688 c 1.87299,0.0815 3.74734,0.14174 5.62109,0.21094 1.00398,0.0358 2.00787,0.0721 3.01172,0.10937 -0.0566,-0.0241 -0.11275,-0.0505 -0.16797,-0.0801 -0.28977,-0.1812 -0.29405,-0.14829 -0.51172,-0.45704 -0.0336,-0.0477 -0.0484,-0.10757 -0.0684,-0.1621 -4.9e-4,-0.001 -8.5e-4,-0.003 -0.002,-0.004 l -0.59571,-0.084 c 0.003,-0.0533 0.005,-0.12214 0.0137,-0.26562 0.0321,-0.50495 0.0614,-1.00956 0.0684,-1.51563 0.0303,-0.9674 0.0371,-1.93505 -0.01,-2.90234 -0.0242,-0.61833 -0.0266,-1.23688 -0.0176,-1.85547 -0.039,-1.47278 -0.23753,-2.93443 -0.29883,-4.40625 -0.0781,-1.52881 -0.14427,-3.05712 -0.17187,-4.58789 -0.0392,-2.1747 -0.009,-1.31781 -0.0215,-3.37695 -0.003,-0.52814 -0.0116,-1.05588 -0.0176,-1.58399 -0.0868,-3.16571 -0.24605,-6.33052 -0.24805,-9.49804 0.006,-2.43583 -0.004,-4.87388 0.0762,-7.3086 h 3.2168 c -4.4e-4,-0.19006 -0.002,-0.38011 -0.002,-0.57031 0.005,-0.0822 0.008,-0.15624 0.0156,-0.22656 -1.41611,0.0822 -2.83269,0.15493 -4.25,0.21289 l -0.0527,-1.29883 c 1.61634,-0.066 3.23262,-0.14359 4.84765,-0.24219 0.55149,-0.0283 1.10255,-0.0633 1.6543,-0.0859 0.68677,-0.0281 1.37357,-0.0425 2.06055,-0.041 0.30315,6.7e-4 0.60699,0.006 0.91015,0.0137 V 30.345703 h -81.58203 c -0.003,0.0427 -0.004,0.08613 -0.006,0.128906 0.002,0.141416 -0.0212,0.281056 -0.0312,0.421875 -0.01,0.260302 -0.005,0.520819 -0.004,0.78125 -0.007,0.238234 -0.0301,0.474644 -0.0371,0.712891 -0.002,0.149716 -5.3e-4,0.299495 0,0.449219 6.7e-4,0.255341 0.002,0.512228 0.002,0.767578 -8e-5,0.368609 -0.002,0.73686 -0.002,1.105469 v 1.023437 c -0.0105,0.289998 -0.0301,0.580962 -0.0371,0.871094 l -0.91797,-0.02344 c 0.003,-0.132804 0.0113,-0.265591 0.0176,-0.398437 -0.0427,0.0042 -0.0585,0.0054 -0.12305,0.01172 -0.1293,-1e-5 -0.2592,-2.6e-5 -0.38867,0 l 0.0176,2.746093 c -0.25141,8.6e-4 -0.5031,-0.0019 -0.75391,-0.02148 -0.44956,-0.03563 -0.68216,-0.07568 -1.10352,-0.09766 -0.0885,-0.0082 -0.17712,-0.01474 -0.26562,-0.02344 -0.0482,-0.0048 -0.10953,0.01805 -0.14453,-0.01563 l 0.002,-0.002 c -0.16037,-0.0011 -0.32202,0.01493 -0.48047,0.002 -0.92978,0.02426 -1.8571,0.09655 -2.7832,0.181641 -1.46694,0.129931 -2.9374,0.200185 -4.40235,0.351562 -0.72713,0.0968 -1.45269,0.217572 -2.18164,0.300782 -1.15214,0.131528 -2.3099,0.203741 -3.46875,0.238281 -1.6216,0.01923 -2.13272,0.04322 -3.80273,-0.02148 -2.50456,-0.09704 -4.99455,-0.379252 -7.48438,-0.652344 -0.83817,-0.08279 -1.3063,-0.146395 -2.11523,-0.171875 -0.72645,-0.02292 -1.45499,0.01464 -2.18164,-0.0059 -1.00061,-0.0059 -2.00174,-0.01148 -3.00195,0.02344 -0.92093,0.04157 -1.83979,0.120874 -2.75977,0.177734 l -0.21875,-2.839843 c -0.23845,0.03481 -0.476,0.0757 -0.7168,0.09375 -0.17823,0.009 -0.43025,0.03207 -0.59375,-0.0293 -0.0797,-0.02992 -0.16089,-0.06287 -0.23828,-0.101563 0.018,0.438159 0.0339,0.876411 0.0527,1.314453 l -0.91797,0.03906 c -0.0444,-1.032065 -0.0875,-2.065249 -0.12305,-3.097656 -0.0149,-0.480034 -0.0316,-0.959375 -0.0449,-1.439454 -0.0259,-0.933453 -0.0406,-1.867617 -0.0801,-2.800781 z m 84.498046,5.03125 c -1.8e-4,0.01546 -6e-4,0.03144 0,0.04687 1.5e-4,0.01375 0.007,-0.02816 0.002,-0.04102 -7.2e-4,-0.0019 -7e-4,-0.004 -0.002,-0.0059 z M 47.806641,150.01758 c -0.01139,0.0169 -0.01527,0.0356 -0.02539,0.0527 0.249352,-0.006 0.498637,-0.015 0.748047,-0.0195 z m 91.664059,84.94336 c -0.002,2.9e-4 -0.004,0.002 -0.006,0.002 v 0.002 c -4.9e-4,0.003 0.003,2e-4 0.006,-0.004 z m -0.043,0.008 c -0.006,8e-4 -0.009,4e-4 -0.0156,0.002 -0.0122,0.0173 -0.009,0.0139 0.0156,-0.002 z" />
    </clipPath>
  </defs>
  <rect
     width="337.15869"
     height="258.72275"
     x="4.9556513"
     y="5.2536316"
     stroke="#000000"
     stroke-width="2"
     id="rect2"
     clip-path="url(#clipPath5973)" />
  <ellipse
     cx="308.29001"
     cy="36.550003"
     stroke="#000000"
     stroke-width="2"
     rx="15.9"
     ry="15.51"
     id="ellipse4" />
  <text
     xml:space="preserve"
     style="font-size:24px;fill:#000000;fill-opacity:0;stroke:#000000;stroke-width:2;stroke-dasharray:none;stroke-opacity:1;text-anchor:middle;text-align:center"
     x="41.719296"
     y="167.5843"
     id="text16606"><tspan
       id="tspan16604"
       x="41.719296"
       y="167.5843"
       style="font-style:normal;font-variant:normal;font-weight:bold;font-stretch:normal;font-size:24px;font-family:sans-serif;-inkscape-font-specification:'sans-serif, Bold';font-variant-ligatures:normal;font-variant-caps:normal;font-variant-numeric:normal;font-variant-east-asian:normal;fill:#000000;fill-opacity:1;stroke:none;text-anchor:middle;text-align:center" /></text>
  <rect
     style="fill:none;stroke:#000000;stroke-width:5;stroke-dasharray:none"
     id="rect851"
     width="199.98566"
     height="199.98566"
     x="43.240143"
     y="32.845879"
     clip-path="url(#clipPath5983)"
     transform="translate(0,2)" />
  <path
     sodipodi:type="star"
     style="fill:#000000;fill-opacity:1;stroke:#000000;stroke-width:5;stroke-dasharray:none"
     id="path959"
     inkscape:flatsided="false"
     sodipodi:sides="3"
     sodipodi:cx="60.702511"
     sodipodi:cy="9.9784946"
     sodipodi:r1="16.760248"
     sodipodi:r2="8.3801241"
     sodipodi:arg1="0.52359878"
     sodipodi:arg2="1.5707963"
     inkscape:rounded="0"
     inkscape:randomized="0"
     d="m 75.217311,18.358619 -14.5148,0 -14.514801,0 7.2574,-12.5701862 7.257401,-12.5701863 7.2574,12.5701859 z"
     inkscape:transform-center-y="-2.1094604"
     transform="matrix(1.0721615,0,0,0.50344369,78.46191,15.948928)" />
  <path
     sodipodi:type="star"
     style="fill:#000000;fill-opacity:1;stroke:#000000;stroke-width:5;stroke-dasharray:none"
     id="path959-0"
     inkscape:flatsided="false"
     sodipodi:sides="3"
     sodipodi:cx="60.702511"
     sodipodi:cy="9.9784946"
     sodipodi:r1="16.760248"
     sodipodi:r2="8.3801241"
     sodipodi:arg1="0.52359878"
     sodipodi:arg2="1.5707963"
     inkscape:rounded="0"
     inkscape:randomized="0"
     d="m 75.217311,18.358619 -14.5148,0 -14.514801,0 7.2574,-12.5701862 7.257401,-12.5701863 7.2574,12.5701859 z"
     inkscape:transform-center-y="2.1094598"
     transform="matrix(-1.0721615,0,0,-0.50344369,208.52376,253.28209)" />
  <path
     sodipodi:type="star"
     style="fill:#000000;fill-opacity:1;stroke:#000000;stroke-width:5;stroke-dasharray:none"
     id="path959-06"
     inkscape:flatsided="false"
     sodipodi:sides="3"
     sodipodi:cx="60.702511"
     sodipodi:cy="9.9784946"
     sodipodi:r1="16.760248"
     sodipodi:r2="8.3801241"
     sodipodi:arg1="0.52359878"
     sodipodi:arg2="1.5707963"
     inkscape:rounded="0"
     inkscape:randomized="0"
     d="m 75.217311,18.358619 -14.5148,0 -14.514801,0 7.2574,-12.5701862 7.257401,-12.5701863 7.2574,12.5701859 z"
     transform="matrix(0,-1.0721615,0.50344369,0,24.290002,197.75534)"
     inkscape:transform-center-x="2.1094651" />
  <path
     sodipodi:type="star"
     style="fill:#000000;fill-opacity:1;stroke:#000000;stroke-width:5;stroke-dasharray:none"
     id="path959-0-3"
     inkscape:flatsided="false"
     sodipodi:sides="3"
     sodipodi:cx="60.702511"
     sodipodi:cy="9.9784946"
     sodipodi:r1="16.760248"
     sodipodi:r2="8.3801241"
     sodipodi:arg1="0.52359878"
     sodipodi:arg2="1.5707963"
     inkscape:rounded="0"
     inkscape:randomized="0"
     d="m 75.217311,18.358619 -14.5148,0 -14.514801,0 7.2574,-12.5701862 7.257401,-12.5701863 7.2574,12.5701859 z"
     transform="matrix(0,1.0721615,-0.50344369,0,261.62317,67.693476)"
     inkscape:transform-center-x="-2.1094552" />
  <circle
     style="fill:#000000;fill-opacity:1;stroke:#000000;stroke-width:5;stroke-dasharray:none"
     id="path3319"
     cx="71.203911"
     cy="57.203907"
     r="4.7039075" />
  <circle
     style="fill:#000000;fill-opacity:1;stroke:#000000;stroke-width:5;stroke-dasharray:none"
     id="path3319-0"
     cx="109.1749"
     cy="57.203907"
     r="4.7039075" />
  <circle
     style="fill:#000000;fill-opacity:1;stroke:#000000;stroke-width:5;stroke-dasharray:none"
     id="path3319-1"
     cx="144.78391"
     cy="57.203907"
     r="4.7039075" />
  <circle
     style="fill:#000000;fill-opacity:1;stroke:#000000;stroke-width:5;stroke-dasharray:none"
     id="path3319-0-0"
     cx="182.75497"
     cy="57.203907"
     r="4.7039075" />
  <circle
     style="fill:#000000;fill-opacity:1;stroke:#000000;stroke-width:5;stroke-dasharray:none;stroke-opacity:1"
     id="path3319-0-0-5"
     cx="218.33147"
     cy="57.181873"
     r="4.7039075" />
  <circle
     style="fill:#000000;fill-opacity:1;stroke:#000000;stroke-width:5;stroke-dasharray:none"
     id="path3319-4"
     cx="71.007874"
     cy="93.1194"
     r="4.7039075" />
  <circle
     style="fill:#000000;fill-opacity:1;stroke:#000000;stroke-width:5;stroke-dasharray:none"
     id="path3319-0-2"
     cx="108.97886"
     cy="93.1194"
     r="4.7039075" />
  <circle
     style="fill:#000000;fill-opacity:1;stroke:#000000;stroke-width:5;stroke-dasharray:none"
     id="path3319-1-6"
     cx="144.58788"
     cy="93.1194"
     r="4.7039075" />
  <circle
     style="fill:#000000;fill-opacity:1;stroke:#000000;stroke-width:5;stroke-dasharray:none"
     id="path3319-0-0-8"
     cx="182.55894"
     cy="93.1194"
     r="4.7039075" />
  <circle
     style="fill:#000000;fill-opacity:1;stroke:#000000;stroke-width:5;stroke-dasharray:none;stroke-opacity:1"
     id="path3319-0-0-5-0"
     cx="218.13544"
     cy="93.097366"
     r="4.7039075" />
  <circle
     style="fill:#000000;fill-opacity:1;stroke:#000000;stroke-width:5;stroke-dasharray:none"
     id="path3319-08"
     cx="71.066498"
     cy="131.15363"
     r="4.7039075" />
  <circle
     style="fill:#000000;fill-opacity:1;stroke:#000000;stroke-width:5;stroke-dasharray:none"
     id="path3319-0-28"
     cx="109.03748"
     cy="131.15363"
     r="4.7039075" />
  <circle
     style="fill:#000000;fill-opacity:1;stroke:#000000;stroke-width:5;stroke-dasharray:none"
     id="path3319-1-3"
     cx="144.64648"
     cy="131.15363"
     r="4.7039075" />
  <circle
     style="fill:#000000;fill-opacity:1;stroke:#000000;stroke-width:5;stroke-dasharray:none"
     id="path3319-0-0-9"
     cx="182.61755"
     cy="131.15363"
     r="4.7039075" />
  <circle
     style="fill:#000000;fill-opacity:1;stroke:#000000;stroke-width:5;stroke-dasharray:none;stroke-opacity:1"
     id="path3319-0-0-5-6"
     cx="218.19405"
     cy="131.13159"
     r="4.7039075" />
  <circle
     style="fill:#000000;fill-opacity:1;stroke:#000000;stroke-width:5;stroke-dasharray:none"
     id="path3319-4-3"
     cx="70.870461"
     cy="167.06912"
     r="4.7039075" />
  <circle
     style="fill:#000000;fill-opacity:1;stroke:#000000;stroke-width:5;stroke-dasharray:none"
     id="path3319-0-2-1"
     cx="108.84145"
     cy="167.06912"
     r="4.7039075" />
  <circle
     style="fill:#000000;fill-opacity:1;stroke:#000000;stroke-width:5;stroke-dasharray:none"
     id="path3319-1-6-0"
     cx="144.45045"
     cy="167.06912"
     r="4.7039075" />
  <circle
     style="fill:#000000;fill-opacity:1;stroke:#000000;stroke-width:5;stroke-dasharray:none"
     id="path3319-0-0-8-8"
     cx="182.42152"
     cy="167.06912"
     r="4.7039075" />
  <circle
     style="fill:#000000;fill-opacity:1;stroke:#000000;stroke-width:5;stroke-dasharray:none;stroke-opacity:1"
     id="path3319-0-0-5-0-2"
     cx="217.99802"
     cy="167.04709"
     r="4.7039075" />
  <circle
     style="fill:#000000;fill-opacity:1;stroke:#000000;stroke-width:5;stroke-dasharray:none"
     id="path3319-4-3-2"
     cx="70.659966"
     cy="202.79718"
     r="4.7039075" />
  <circle
     style="fill:#000000;fill-opacity:1;stroke:#000000;stroke-width:5;stroke-dasharray:none"
     id="path3319-0-2-1-0"
     cx="108.63096"
     cy="202.79718"
     r="4.7039075" />
  <circle
     style="fill:#000000;fill-opacity:1;stroke:#000000;stroke-width:5;stroke-dasharray:none"
     id="path3319-1-6-0-5"
     cx="144.23996"
     cy="202.79718"
     r="4.7039075" />
  <circle
     style="fill:#000000;fill-opacity:1;stroke:#000000;stroke-width:5;stroke-dasharray:none"
     id="path3319-0-0-8-8-1"
     cx="182.21103"
     cy="202.79718"
     r="4.7039075" />
  <circle
     style="fill:#000000;fill-opacity:1;stroke:#000000;stroke-width:5;stroke-dasharray:none;stroke-opacity:1"
     id="path3319-0-0-5-0-2-9"
     cx="217.78752"
     cy="202.77515"
     r="4.7039075" />
  <path
     sodipodi:type="star"
     style="fill:none;fill-opacity:1;stroke:#000000;stroke-width:2;stroke-dasharray:none;stroke-opacity:1"
     id="path4358"
     inkscape:flatsided="false"
     sodipodi:sides="5"
     sodipodi:cx="144.2724"
     sodipodi:cy="91.8853"
     sodipodi:r1="22.0672"
     sodipodi:r2="11.386675"
     sodipodi:arg1="0.78539816"
     sodipodi:arg2="1.4137167"
     inkscape:rounded="0"
     inkscape:randomized="0"
     d="m 159.87627,107.48917 -13.8226,-4.35738 -11.79957,8.41553 -0.1273,-14.492578 -11.64992,-8.621513 13.74392,-4.599524 4.59953,-13.743921 8.62151,11.649914 14.49258,0.127303 -8.41553,11.799567 z"
     inkscape:transform-center-x="0.83597331"
     inkscape:transform-center-y="-0.83597381"
     transform="matrix(0.78366511,0,0,0.78366511,31.398724,20.800553)" />
  <path
     sodipodi:type="star"
     style="fill:none;fill-opacity:1;stroke:#000000;stroke-width:2;stroke-dasharray:none;stroke-opacity:1"
     id="path4358-1"
     inkscape:flatsided="false"
     sodipodi:sides="5"
     sodipodi:cx="144.2724"
     sodipodi:cy="91.8853"
     sodipodi:r1="22.0672"
     sodipodi:r2="11.386675"
     sodipodi:arg1="0.78539816"
     sodipodi:arg2="1.4137167"
     inkscape:rounded="0"
     inkscape:randomized="0"
     d="m 159.87627,107.48917 -13.8226,-4.35738 -11.79957,8.41553 -0.1273,-14.492578 -11.64992,-8.621513 13.74392,-4.599524 4.59953,-13.743921 8.62151,11.649914 14.49258,0.127303 -8.41553,11.799567 z"
     inkscape:transform-center-x="0.83597331"
     inkscape:transform-center-y="-0.83597381"
     transform="matrix(0.78366511,0,0,0.78366511,31.340676,95.023675)" />
</svg>
