<?xml version="1.0" encoding="UTF-8" standalone="no"?>
<svg
   fill="none"
   viewBox="0 0 348 348"
   version="1.1"
   id="svg6"
   sodipodi:docname="Module Sprint.svg"
   inkscape:version="1.2.2 (732a01da63, 2022-12-09)"
   xmlns:inkscape="http://www.inkscape.org/namespaces/inkscape"
   xmlns:sodipodi="http://sodipodi.sourceforge.net/DTD/sodipodi-0.dtd"
   xmlns="http://www.w3.org/2000/svg"
   xmlns:svg="http://www.w3.org/2000/svg">
  <defs
     id="defs10" />
  <sodipodi:namedview
     id="namedview8"
     pagecolor="#ffffff"
     bordercolor="#111111"
     borderopacity="1"
     inkscape:showpageshadow="0"
     inkscape:pageopacity="0"
     inkscape:pagecheckerboard="1"
     inkscape:deskcolor="#d1d1d1"
     showgrid="false"
     inkscape:zoom="4.0000001"
     inkscape:cx="209.37499"
     inkscape:cy="275.49999"
     inkscape:window-width="1920"
     inkscape:window-height="1017"
     inkscape:window-x="-8"
     inkscape:window-y="-8"
     inkscape:window-maximized="1"
     inkscape:current-layer="svg6" />
  <rect
     width="336.91"
     height="337.67"
     x="5.08"
     y="5.78"
     stroke="#000"
     stroke-width="2"
     id="rect2" />
  <ellipse
     cx="298.29"
     cy="40.55"
     stroke="#000"
     stroke-width="2"
     rx="15.9"
     ry="15.51"
     id="ellipse4" />
  <rect
     style="fill:#000000;fill-opacity:0;stroke:#000000;stroke-width:1.81847;stroke-dasharray:none;stroke-opacity:1"
     id="rect168"
     width="235.04385"
     height="90.347969"
     x="19.212614"
     y="185.04732" />
  <rect
     style="fill:#000000;fill-opacity:0;stroke:#000000;stroke-width:1.81847;stroke-dasharray:none;stroke-opacity:1"
     id="rect168-7"
     width="235.04385"
     height="180.46805"
     x="19.244881"
     y="94.722893" />
  <rect
     style="fill:#000000;fill-opacity:0;stroke:#000000;stroke-width:2;stroke-dasharray:none;stroke-opacity:1"
     id="rect168-4"
     width="234.91042"
     height="62.781372"
     x="19.7491"
     y="17.462374"
     ry="0" />
  <rect
     style="fill:#000000;fill-opacity:0;stroke:#000000;stroke-width:1.85191;stroke-dasharray:none;stroke-opacity:1"
     id="rect1309"
     width="49.545811"
     height="48.24913"
     x="32.550049"
     y="24.349421" />
  <rect
     style="fill:#000000;fill-opacity:0;stroke:#000000;stroke-width:1.75747;stroke-dasharray:none;stroke-opacity:1"
     id="rect168-4-6"
     width="181.09494"
     height="62.884174"
     x="-275.56223"
     y="267.98337"
     ry="0"
     transform="rotate(-90)" />
  <rect
     style="fill:#000000;fill-opacity:0;stroke:#000000;stroke-width:1.81847;stroke-dasharray:none;stroke-opacity:1"
     id="rect1309-0"
     width="163.94687"
     height="46.480392"
     x="-268.2359"
     y="275.80554"
     transform="rotate(-90)" />
  <rect
     style="fill:#000000;fill-opacity:0;stroke:#000000;stroke-width:1.85191;stroke-dasharray:none;stroke-opacity:1"
     id="rect1309-56"
     width="49.545811"
     height="48.24913"
     x="139.75043"
     y="24.371477" />
  <rect
     style="fill:#000000;fill-opacity:0;stroke:#000000;stroke-width:1.85191;stroke-dasharray:none;stroke-opacity:1"
     id="rect1309-56-1"
     width="49.545811"
     height="48.24913"
     x="193.15642"
     y="24.37455" />
  <rect
     style="fill:#000000;fill-opacity:0;stroke:#000000;stroke-width:1.85191;stroke-dasharray:none;stroke-opacity:1"
     id="rect1309-5"
     width="49.545811"
     height="48.24913"
     x="85.947731"
     y="24.349421" />
  <path
     sodipodi:type="star"
     style="fill:#000000;fill-opacity:0;stroke:#000000;stroke-width:10.3387;stroke-dasharray:none;stroke-opacity:1"
     id="path2236"
     inkscape:flatsided="false"
     sodipodi:sides="3"
     sodipodi:cx="66.442696"
     sodipodi:cy="135.82533"
     sodipodi:r1="152.0891"
     sodipodi:r2="76.044548"
     sodipodi:arg1="1.0708325"
     sodipodi:arg2="2.1180301"
     inkscape:rounded="0"
     inkscape:randomized="0"
     d="M 139.35326,269.29871 26.874667,200.76488 -85.603923,132.23105 29.987415,69.088643 145.57875,5.9462399 142.466,137.62248 Z"
     inkscape:transform-center-x="2.9604299"
     inkscape:transform-center-y="-0.55792032"
     transform="matrix(-0.00638395,-0.13057722,0.25384582,-0.00328388,108.03639,312.17113)" />
  <rect
     style="fill:#000000;fill-opacity:0;stroke:#000000;stroke-width:2;stroke-dasharray:none;stroke-opacity:1"
     id="rect2238"
     width="72.478447"
     height="30.052038"
     x="261.98306"
     y="294.76303" />
  <g
     aria-label="Submit"
     id="text1660"
     style="font-weight:bold;font-size:13.3333px;-inkscape-font-specification:'sans-serif, Bold';text-align:center;text-anchor:middle;fill:#000000;stroke-width:2"
     transform="translate(150.94284,69.159517)">
    <path
       d="m 130.07908,242.25779 q 0,1.43229 -1.21744,2.33072 -1.21093,0.89193 -3.29426,0.89193 -1.20443,0 -2.10286,-0.20834 -0.89193,-0.21484 -1.67317,-0.54036 v -2.32421 h 0.27343 q 0.77474,0.61849 1.73177,0.95052 0.96354,0.33203 1.84895,0.33203 0.22787,0 0.59896,-0.0391 0.37109,-0.0391 0.60547,-0.13021 0.28645,-0.11719 0.46875,-0.29297 0.1888,-0.17578 0.1888,-0.52083 0,-0.31901 -0.27344,-0.54688 -0.26693,-0.23437 -0.78776,-0.35807 -0.54687,-0.13021 -1.15885,-0.24088 -0.60547,-0.11719 -1.13932,-0.29297 -1.22396,-0.39714 -1.76432,-1.07422 -0.53385,-0.68359 -0.53385,-1.6927 0,-1.35416 1.21093,-2.20703 1.21745,-0.85937 3.125,-0.85937 0.95702,0 1.88801,0.1888 0.9375,0.18229 1.62109,0.46224 v 2.23307 h -0.26693 q -0.58593,-0.46875 -1.43879,-0.78125 -0.84636,-0.31901 -1.73177,-0.31901 -0.3125,0 -0.625,0.0456 -0.30599,0.0391 -0.59244,0.15625 -0.25391,0.0977 -0.4362,0.29948 -0.18229,0.19531 -0.18229,0.44922 0,0.38411 0.29297,0.59244 0.29296,0.20183 1.10676,0.3711 0.53386,0.11067 1.02214,0.21484 0.49479,0.10417 1.06119,0.28646 1.11328,0.36458 1.64062,0.99609 0.53385,0.625 0.53385,1.6276 z"
       id="path1766" />
    <path
       d="m 138.94625,245.30466 h -2.34374 v -0.80729 q -0.65104,0.49479 -1.19141,0.7552 -0.54036,0.25391 -1.28906,0.25391 -1.21093,0 -1.86848,-0.69661 -0.65104,-0.69662 -0.65104,-2.05729 v -4.7591 h 2.35676 v 3.62629 q 0,0.55338 0.0326,0.92448 0.0391,0.36458 0.16927,0.60546 0.12369,0.24089 0.37109,0.35157 0.2539,0.11067 0.70312,0.11067 0.29948,0 0.66406,-0.11067 0.36459,-0.11068 0.70313,-0.32552 v -5.18228 h 2.34374 z"
       id="path1768" />
    <path
       d="m 148.78997,241.54816 q 0,1.72525 -0.95702,2.81249 -0.95052,1.08724 -2.3763,1.08724 -0.61198,0 -1.07422,-0.13021 -0.46223,-0.13021 -0.8789,-0.37761 l -0.0977,0.36459 h -2.24608 v -10.13019 h 2.34374 v 3.58072 q 0.54036,-0.42968 1.10026,-0.69661 0.5664,-0.26692 1.30208,-0.26692 1.38671,0 2.13541,1.0026 0.74869,0.99609 0.74869,2.7539 z m -2.41535,0.0456 q 0,-0.97656 -0.33203,-1.5039 -0.33203,-0.52735 -1.1849,-0.52735 -0.33203,0 -0.68359,0.10417 -0.35156,0.0977 -0.67057,0.28646 v 3.67186 q 0.25391,0.0911 0.48177,0.1237 0.22786,0.0325 0.54687,0.0325 0.93099,0 1.38672,-0.54687 0.45573,-0.54687 0.45573,-1.64062 z"
       id="path1770" />
    <path
       d="m 157.6311,240.12238 v 5.18228 h -2.35677 v -3.65234 q 0,-0.53385 -0.026,-0.90494 -0.026,-0.37761 -0.14323,-0.61198 -0.11718,-0.23438 -0.35807,-0.33854 -0.23437,-0.11068 -0.66406,-0.11068 -0.34505,0 -0.67057,0.14323 -0.32552,0.13672 -0.58594,0.29297 v 5.18228 h -2.34374 v -7.31118 h 2.34374 v 0.80729 q 0.60547,-0.47526 1.15885,-0.74219 0.55339,-0.26692 1.22396,-0.26692 0.72265,0 1.27604,0.32552 0.55338,0.319 0.86588,0.944 0.70312,-0.59244 1.36719,-0.93098 0.66406,-0.33854 1.30208,-0.33854 1.18489,0 1.79687,0.70963 0.61848,0.70963 0.61848,2.04426 v 4.75911 h -2.35676 v -3.65234 q 0,-0.54036 -0.026,-0.91145 -0.0195,-0.3711 -0.13672,-0.60547 -0.11068,-0.23438 -0.35156,-0.33854 -0.24089,-0.11068 -0.67708,-0.11068 -0.29297,0 -0.57292,0.10417 -0.27995,0.0977 -0.68359,0.33203 z"
       id="path1772" />
    <path
       d="m 166.93446,245.30466 h -2.34374 v -7.31118 h 2.34374 z m 0.0651,-8.35285 h -2.47395 v -1.77734 h 2.47395 z"
       id="path1774" />
    <path
       d="m 173.82246,245.23955 q -0.3776,0.0977 -0.80078,0.14974 -0.42317,0.0586 -1.03515,0.0586 -1.36719,0 -2.03776,-0.55339 -0.66406,-0.55338 -0.66406,-1.89452 v -3.41796 h -0.96354 v -1.58854 h 0.96354 v -2.08984 h 2.34375 v 2.08984 h 2.194 v 1.58854 h -2.194 v 2.59113 q 0,0.38412 0.007,0.67058 0.007,0.28645 0.10416,0.51432 0.0911,0.22786 0.31901,0.36458 0.23438,0.13021 0.67708,0.13021 0.1823,0 0.47526,-0.0781 0.29948,-0.0781 0.41667,-0.14323 h 0.19531 z"
       id="path1776" />
  </g>
</svg>
