<?xml version="1.0" encoding="UTF-8" standalone="no"?>
<svg
   fill="none"
   viewBox="0 0 348 348"
   version="1.1"
   id="svg6"
   sodipodi:docname="Morse.svg"
   inkscape:version="1.2.2 (732a01da63, 2022-12-09)"
   xmlns:inkscape="http://www.inkscape.org/namespaces/inkscape"
   xmlns:sodipodi="http://sodipodi.sourceforge.net/DTD/sodipodi-0.dtd"
   xmlns="http://www.w3.org/2000/svg"
   xmlns:svg="http://www.w3.org/2000/svg">
  <defs
     id="defs10" />
  <sodipodi:namedview
     id="namedview8"
     pagecolor="#ffffff"
     bordercolor="#111111"
     borderopacity="1"
     inkscape:showpageshadow="0"
     inkscape:pageopacity="0"
     inkscape:pagecheckerboard="1"
     inkscape:deskcolor="#d1d1d1"
     showgrid="false"
     inkscape:zoom="2"
     inkscape:cx="93.75"
     inkscape:cy="180.5"
     inkscape:window-width="1920"
     inkscape:window-height="1017"
     inkscape:window-x="-8"
     inkscape:window-y="-8"
     inkscape:window-maximized="1"
     inkscape:current-layer="svg6" />
  <rect
     width="337.15869"
     height="258.72275"
     x="4.9556513"
     y="5.2536316"
     stroke="#000000"
     stroke-width="2"
     id="rect2" />
  <ellipse
     cx="308.29001"
     cy="36.550003"
     stroke="#000000"
     stroke-width="2"
     rx="15.9"
     ry="15.51"
     id="ellipse4" />
  <text
     xml:space="preserve"
     style="font-size:24px;fill:#000000;fill-opacity:0;stroke:#000000;stroke-width:2;stroke-dasharray:none;stroke-opacity:1;text-anchor:middle;text-align:center"
     x="41.719296"
     y="167.5843"
     id="text16606"><tspan
       sodipodi:role="line"
       id="tspan16604"
       x="41.719296"
       y="167.5843"
       style="font-style:normal;font-variant:normal;font-weight:bold;font-stretch:normal;font-size:24px;font-family:sans-serif;-inkscape-font-specification:'sans-serif, Bold';font-variant-ligatures:normal;font-variant-caps:normal;font-variant-numeric:normal;font-variant-east-asian:normal;fill:#000000;fill-opacity:1;stroke:none;text-anchor:middle;text-align:center" /></text>
  <rect
     style="fill:#ffffff;fill-opacity:1;stroke:#000000;stroke-width:3.25683;stroke-dasharray:none;stroke-opacity:1"
     id="rect168-4-6"
     width="307.58191"
     height="127.14574"
     x="-327.23401"
     y="-199.27386"
     ry="0"
     transform="scale(-1)" />
  <rect
     style="fill:#ffffff;fill-opacity:1;stroke:#000000;stroke-width:3.70627;stroke-dasharray:none;stroke-opacity:1"
     id="rect1309-0"
     width="293.30554"
     height="108.25998"
     x="-320.6387"
     y="-189.34773"
     transform="scale(-1)" />
  <rect
     style="fill:#ffffff;fill-opacity:0.0328467;stroke:#000000;stroke-width:2"
     id="rect31951"
     width="70.5"
     height="31.25"
     x="20.75"
     y="20"
     ry="15.625" />
  <rect
     style="fill:#000000;fill-opacity:1;stroke:#000000;stroke-width:1.80119;stroke-opacity:0"
     id="rect31953"
     width="3.323813"
     height="30.448812"
     x="42.650593"
     y="20.650593"
     ry="0" />
  <rect
     style="fill:#000000;fill-opacity:1;stroke:#000000;stroke-width:1.80119;stroke-opacity:0"
     id="rect31953-8"
     width="3.323813"
     height="30.448812"
     x="64.963097"
     y="20.775595"
     ry="0" />
  <rect
     style="fill:#000000;fill-opacity:0;stroke:#000000;stroke-width:2;stroke-opacity:1;stroke-dasharray:none"
     id="rect32033"
     width="35.284084"
     height="35.284084"
     x="106.08513"
     y="18.383366" />
  <rect
     style="fill:#000000;fill-opacity:0;stroke:#000000;stroke-width:2;stroke-opacity:1;stroke-dasharray:none"
     id="rect32033-3"
     width="65.202606"
     height="34.702606"
     x="155.98344"
     y="18.687153" />
  <rect
     style="fill:#000000;fill-opacity:0;stroke:#000000;stroke-width:2;stroke-dasharray:none;stroke-opacity:1"
     id="rect32033-3-6"
     width="72.869843"
     height="34.591663"
     x="84.577271"
     y="215.61838" />
  <rect
     style="fill:#000000;fill-opacity:0;stroke:#000000;stroke-width:2;stroke-dasharray:none;stroke-opacity:1"
     id="rect32033-3-6-2"
     width="72.869843"
     height="34.591663"
     x="197.40977"
     y="215.60579" />
  <rect
     style="fill:#000000;fill-opacity:0;stroke:#000000;stroke-width:2;stroke-opacity:1;stroke-dasharray:none"
     id="rect32033-3-9"
     width="35.284084"
     height="35.284084"
     x="234.62614"
     y="18.374628" />
  <g
     aria-label="."
     id="text34316"
     style="font-weight:bold;font-size:24px;-inkscape-font-specification:'sans-serif, Bold';text-align:center;text-anchor:middle;fill:#000000;stroke:#000000;stroke-width:2">
    <path
       d="m 125.69141,38.75 h -4.38282 v -4.605469 h 4.38282 z"
       id="path35564" />
  </g>
  <g
     aria-label="_"
     id="text35569"
     style="font-weight:bold;font-size:24px;-inkscape-font-specification:'sans-serif, Bold';text-align:center;text-anchor:middle;fill:#000000;stroke:#000000;stroke-width:2">
    <path
       d="m 196.96875,38.101562 h -17.4375 v -2.472656 h 17.4375 z"
       id="path35571" />
  </g>
  <g
     aria-label="&gt;"
     id="text35576"
     style="font-weight:bold;font-size:24px;-inkscape-font-specification:'sans-serif, Bold';text-align:center;text-anchor:middle;fill:#000000;stroke:#000000;stroke-width:2">
    <path
       d="m 259.76562,37.078125 -15.65625,6.503906 V 40.21875 l 10.95704,-4.476563 -10.95704,-4.476562 v -3.363281 l 15.65625,6.503906 z"
       id="path35578" />
  </g>
  <g
     aria-label="Submit"
     id="text35583"
     style="font-size:24px;-inkscape-font-specification:'sans-serif, Normal';text-align:center;text-anchor:middle;fill:#000000;stroke:#000000;stroke-width:0.3">
    <path
       d="m 99.538269,234.10841 q 0,1.71875 -1.460937,2.79688 -1.453125,1.07031 -3.953125,1.07031 -1.445313,0 -2.523438,-0.25 -1.070312,-0.25781 -2.007812,-0.64844 v -2.78906 h 0.328125 q 0.929687,0.74219 2.078125,1.14063 1.15625,0.39843 2.21875,0.39843 0.273437,0 0.71875,-0.0469 0.445312,-0.0469 0.726562,-0.15625 0.34375,-0.14063 0.5625,-0.35156 0.226563,-0.21094 0.226563,-0.625 0,-0.38282 -0.328125,-0.65625 -0.320313,-0.28125 -0.945313,-0.42969 -0.65625,-0.15625 -1.390625,-0.28906 -0.726562,-0.14063 -1.367187,-0.35157 -1.46875,-0.47656 -2.117188,-1.28906 -0.640625,-0.82031 -0.640625,-2.03125 0,-1.625 1.453125,-2.64844 1.460938,-1.03125 3.75,-1.03125 1.148438,0 2.265625,0.22657 1.125,0.21875 1.945313,0.55468 v 2.67969 h -0.320313 q -0.703125,-0.5625 -1.726562,-0.9375 -1.015625,-0.38281 -2.078125,-0.38281 -0.375,0 -0.75,0.0547 -0.367188,0.0469 -0.710938,0.1875 -0.304687,0.11718 -0.523437,0.35937 -0.21875,0.23438 -0.21875,0.53906 0,0.46094 0.351562,0.71094 0.351563,0.24219 1.328125,0.44531 0.640625,0.13282 1.226563,0.25782 0.59375,0.125 1.273437,0.34375 1.335938,0.4375 1.96875,1.19531 0.640625,0.75 0.640625,1.95312 z"
       style="font-weight:bold;font-size:16px;-inkscape-font-specification:'sans-serif, Bold';stroke-opacity:0"
       id="path37087" />
    <path
       d="m 110.17889,237.76466 h -2.8125 v -0.96875 q -0.78125,0.59375 -1.42968,0.90625 -0.64844,0.30469 -1.54688,0.30469 -1.45312,0 -2.24219,-0.83594 -0.78125,-0.83593 -0.78125,-2.46875 v -5.71093 h 2.82813 v 4.35156 q 0,0.66406 0.0391,1.10937 0.0469,0.4375 0.20313,0.72657 0.14843,0.28906 0.44531,0.42187 0.30469,0.13281 0.84375,0.13281 0.35937,0 0.79687,-0.13281 0.4375,-0.13281 0.84375,-0.39062 v -6.21875 h 2.8125 z"
       style="font-weight:bold;font-size:16px;-inkscape-font-specification:'sans-serif, Bold';stroke-opacity:0"
       id="path37089" />
    <path
       d="m 121.99139,233.25685 q 0,2.07031 -1.14843,3.375 -1.14063,1.30469 -2.85157,1.30469 -0.73437,0 -1.28906,-0.15625 -0.55469,-0.15625 -1.05469,-0.45313 l -0.11718,0.4375 h -2.69532 v -12.15625 h 2.8125 v 4.29688 q 0.64844,-0.51563 1.32032,-0.83594 0.67968,-0.32031 1.5625,-0.32031 1.66406,0 2.5625,1.20312 0.89843,1.19532 0.89843,3.30469 z m -2.89843,0.0547 q 0,-1.17188 -0.39844,-1.80469 -0.39844,-0.63281 -1.42188,-0.63281 -0.39843,0 -0.82031,0.125 -0.42187,0.11719 -0.80469,0.34375 v 4.40625 q 0.30469,0.10937 0.57813,0.14844 0.27344,0.0391 0.65625,0.0391 1.11719,0 1.66406,-0.65625 0.54688,-0.65625 0.54688,-1.96875 z"
       style="font-weight:bold;font-size:16px;-inkscape-font-specification:'sans-serif, Bold';stroke-opacity:0"
       id="path37091" />
    <path
       d="m 132.60077,231.54591 v 6.21875 h -2.82813 v -4.38281 q 0,-0.64062 -0.0312,-1.08594 -0.0312,-0.45312 -0.17187,-0.73437 -0.14063,-0.28125 -0.42969,-0.40625 -0.28125,-0.13281 -0.79687,-0.13281 -0.41407,0 -0.80469,0.17187 -0.39063,0.16406 -0.70313,0.35156 v 6.21875 h -2.8125 v -8.77343 h 2.8125 v 0.96875 q 0.72657,-0.57032 1.39063,-0.89063 0.66406,-0.32031 1.46875,-0.32031 0.86719,0 1.53125,0.39062 0.66406,0.38282 1.03906,1.13282 0.84375,-0.71094 1.64063,-1.11719 0.79687,-0.40625 1.5625,-0.40625 1.42187,0 2.15625,0.85156 0.74218,0.85156 0.74218,2.45313 v 5.71093 h -2.82812 v -4.38281 q 0,-0.64844 -0.0312,-1.09375 -0.0234,-0.44531 -0.16406,-0.72656 -0.13282,-0.28125 -0.42188,-0.40625 -0.28906,-0.13281 -0.8125,-0.13281 -0.35156,0 -0.6875,0.125 -0.33594,0.11718 -0.82031,0.39843 z"
       style="font-weight:bold;font-size:16px;-inkscape-font-specification:'sans-serif, Bold';stroke-opacity:0"
       id="path37093" />
    <path
       d="m 143.76483,237.76466 h -2.8125 v -8.77343 h 2.8125 z m 0.0781,-10.02343 h -2.96875 v -2.13282 h 2.96875 z"
       style="font-weight:bold;font-size:16px;-inkscape-font-specification:'sans-serif, Bold';stroke-opacity:0"
       id="path37095" />
    <path
       d="m 152.03046,237.68654 q -0.45313,0.11719 -0.96094,0.17969 -0.50781,0.0703 -1.24219,0.0703 -1.64062,0 -2.44531,-0.66406 -0.79688,-0.66407 -0.79688,-2.27344 v -4.10156 h -1.15625 v -1.90625 h 1.15625 v -2.50782 h 2.8125 v 2.50782 h 2.63282 v 1.90625 h -2.63282 v 3.10937 q 0,0.46094 0.008,0.80469 0.008,0.34375 0.125,0.61719 0.10937,0.27343 0.38281,0.4375 0.28125,0.15625 0.8125,0.15625 0.21875,0 0.57031,-0.0937 0.35938,-0.0937 0.5,-0.17188 h 0.23438 z"
       style="font-weight:bold;font-size:16px;-inkscape-font-specification:'sans-serif, Bold';stroke-opacity:0"
       id="path37097" />
  </g>
  <g
     aria-label="Submit"
     id="text35583-2"
     style="font-size:24px;-inkscape-font-specification:'sans-serif, Normal';text-align:center;text-anchor:middle;fill:#000000;stroke:#000000;stroke-width:0.3"
     transform="translate(88.66858,6.4873575)">
    <g
       aria-label="Clear"
       id="text37250"
       style="font-weight:bold;font-size:16px;-inkscape-font-specification:'sans-serif, Bold';stroke-opacity:0">
      <path
         d="m 128.43938,231.85744 q -1.29688,0 -2.39844,-0.38282 -1.09375,-0.38281 -1.88281,-1.14062 -0.78907,-0.75781 -1.22657,-1.89063 -0.42968,-1.13281 -0.42968,-2.61718 0,-1.38282 0.41406,-2.50782 0.41406,-1.125 1.20312,-1.92968 0.75782,-0.77344 1.875,-1.19532 1.125,-0.42187 2.45313,-0.42187 0.73437,0 1.32031,0.0859 0.59375,0.0781 1.09375,0.21093 0.52344,0.14844 0.94531,0.33594 0.42969,0.17969 0.75,0.33594 v 2.82031 h -0.34375 q -0.21875,-0.1875 -0.55468,-0.44531 -0.32813,-0.25781 -0.75,-0.50781 -0.42969,-0.25 -0.92969,-0.42188 -0.5,-0.17187 -1.07031,-0.17187 -0.63282,0 -1.20313,0.20312 -0.57031,0.19531 -1.05469,0.65625 -0.46093,0.44531 -0.75,1.17969 -0.28125,0.73437 -0.28125,1.78125 0,1.09375 0.30469,1.82812 0.3125,0.73438 0.78125,1.15625 0.47656,0.42969 1.0625,0.61719 0.58594,0.17969 1.15625,0.17969 0.54688,0 1.07813,-0.16406 0.53906,-0.16407 0.99218,-0.44532 0.38282,-0.22656 0.71094,-0.48437 0.32813,-0.25781 0.53906,-0.44531 h 0.3125 v 2.78125 q -0.4375,0.19531 -0.83593,0.36718 -0.39844,0.17188 -0.83594,0.29688 -0.57031,0.16406 -1.07031,0.25 -0.5,0.0859 -1.375,0.0859 z"
         id="path37252" />
      <path
         d="m 137.41594,231.63087 h -2.8125 v -12.15625 h 2.8125 z"
         id="path37254" />
      <path
         d="m 148.71281,227.76369 h -6.4375 q 0.0625,1.03125 0.78125,1.57812 0.72657,0.54688 2.13282,0.54688 0.89062,0 1.72656,-0.32032 0.83594,-0.32031 1.32031,-0.6875 h 0.3125 v 2.25782 q -0.95312,0.38281 -1.79687,0.55468 -0.84375,0.17188 -1.86719,0.17188 -2.64063,0 -4.04688,-1.1875 -1.40625,-1.1875 -1.40625,-3.38281 0,-2.17188 1.32813,-3.4375 1.33594,-1.27344 3.65625,-1.27344 2.14062,0 3.21875,1.08594 1.07812,1.07812 1.07812,3.10937 z m -2.79687,-1.64844 q -0.0234,-0.88281 -0.4375,-1.32813 -0.41406,-0.44531 -1.28906,-0.44531 -0.8125,0 -1.33594,0.42188 -0.52344,0.42187 -0.58594,1.35156 z"
         id="path37256" />
      <path
         d="m 156.00969,229.34181 v -1.82812 q -0.57031,0.0469 -1.23438,0.13281 -0.66406,0.0781 -1.00781,0.1875 -0.42187,0.13281 -0.64844,0.39062 -0.21875,0.25 -0.21875,0.66407 0,0.27343 0.0469,0.44531 0.0469,0.17187 0.23437,0.32812 0.17969,0.15625 0.42969,0.23438 0.25,0.0703 0.78125,0.0703 0.42188,0 0.85156,-0.17187 0.4375,-0.17188 0.76563,-0.45313 z m 0,1.35938 q -0.22656,0.17187 -0.5625,0.41406 -0.33594,0.24219 -0.63281,0.38281 -0.41407,0.1875 -0.85938,0.27344 -0.44531,0.0937 -0.97656,0.0937 -1.25,0 -2.09375,-0.77344 -0.84375,-0.77344 -0.84375,-1.97656 0,-0.96094 0.42969,-1.57031 0.42968,-0.60938 1.21875,-0.96094 0.78125,-0.35156 1.9375,-0.5 1.15625,-0.14844 2.39843,-0.21875 v -0.0469 q 0,-0.72656 -0.59375,-1 -0.59375,-0.28125 -1.75,-0.28125 -0.69531,0 -1.48437,0.25 -0.78906,0.24219 -1.13281,0.375 h -0.25782 v -2.11718 q 0.44532,-0.11719 1.44532,-0.27344 1.00781,-0.16406 2.01562,-0.16406 2.39844,0 3.46094,0.74218 1.07031,0.73438 1.07031,2.3125 v 5.96875 h -2.78906 z"
         id="path37258" />
      <path
         d="m 167.74406,225.53712 h -0.25 q -0.17968,-0.0625 -0.57812,-0.0937 -0.39844,-0.0312 -0.66406,-0.0312 -0.60157,0 -1.0625,0.0781 -0.46094,0.0781 -0.99219,0.26562 v 5.875 h -2.8125 v -8.77343 h 2.8125 v 1.28906 q 0.92969,-0.79688 1.61719,-1.05469 0.6875,-0.26562 1.26562,-0.26562 0.14844,0 0.33594,0.008 0.1875,0.008 0.32812,0.0234 z"
         id="path37260" />
    </g>
  </g>
</svg>
