<svg xmlns="http://www.w3.org/2000/svg" fill="none" viewBox="0 0 348 348"><path stroke="#000" stroke-width="2" d="M4.956 5.254h337.159v258.723H4.956z"/><ellipse cx="308.29" cy="36.55" stroke="#000" stroke-width="2" rx="15.9" ry="15.51"/><text xml:space="preserve" x="41.719" y="167.584" style="font-size:24px;fill:#000;fill-opacity:0;stroke:#000;stroke-width:2;stroke-dasharray:none;stroke-opacity:1;text-anchor:middle;text-align:center"/><path d="M202.815-217.776h3.018v82.54h-3.018zM209.672-217.959h3.018v82.54h-3.018z" style="fill:#000;fill-opacity:1;stroke:#000;stroke-width:1.57537;stroke-dasharray:none;stroke-opacity:1" transform="rotate(90)"/><path d="M-198.671-151.991h3.018v82.54h-3.018zM-191.92-159.216h3.018v82.54h-3.018z" style="fill:#000;fill-opacity:1;stroke:#000;stroke-width:1.57537;stroke-dasharray:none;stroke-opacity:1" transform="scale(-1)"/><path d="M-251.249-72.418h3.167v38.04h-3.167z" style="fill:#000;fill-opacity:1;stroke:#000;stroke-width:1.09544;stroke-dasharray:none;stroke-opacity:1" transform="scale(-1)"/><path d="M-120.251-79.644h3.084v45.207h-3.084z" style="fill:#000;fill-opacity:1;stroke:#000;stroke-width:1.17843;stroke-dasharray:none;stroke-opacity:1" transform="scale(-1)"/><path d="M174.562-303.678h3.018v82.54h-3.018zM181.419-303.862h3.018v82.54h-3.018z" style="fill:#000;fill-opacity:1;stroke:#000;stroke-width:1.57537;stroke-dasharray:none;stroke-opacity:1" transform="rotate(90)"/><path d="M149.017-225.329h3.247v29.986h-3.247z" style="fill:#000;fill-opacity:1;stroke:#000;stroke-width:.984913;stroke-dasharray:none;stroke-opacity:1" transform="rotate(90)"/><path d="M156.277-225.365h3.165v36.153h-3.165z" style="fill:#000;fill-opacity:1;stroke:#000;stroke-width:1.06761;stroke-dasharray:none;stroke-opacity:1" transform="rotate(90)"/><path d="M-79.387 117.043h2.79v74.903h-2.79z" style="fill:#000;fill-opacity:1;stroke:#000;stroke-width:1.44275;stroke-dasharray:none;stroke-opacity:1" transform="rotate(-90)"/><path d="M-72.261-250.721h2.957v55.196h-2.957z" style="fill:#000;fill-opacity:1;stroke:#000;stroke-width:1.27516;stroke-dasharray:none;stroke-opacity:1" transform="matrix(0 -1 -1 0 0 0)"/><path d="M-37.489-133.608h3.477v16.466h-3.477z" style="fill:#000;fill-opacity:1;stroke:#000;stroke-width:.755224;stroke-dasharray:none;stroke-opacity:1" transform="matrix(0 -1 -1 0 0 0)"/><path d="M-37.81-251.055h3.621v10.36h-3.621z" style="fill:#000;fill-opacity:1;stroke:#000;stroke-width:.611316;stroke-dasharray:none;stroke-opacity:1" transform="matrix(0 -1 -1 0 0 0)"/><circle cx="99.505" cy="156.024" r="88.322" style="fill:#fff;fill-opacity:1;stroke:#000;stroke-width:3.1081;stroke-dasharray:none;stroke-opacity:1"/><g aria-label="TEXT" style="font-weight:700;font-size:24px;-inkscape-font-specification:&quot;sans-serif, Bold&quot;;text-align:center;text-anchor:middle;fill:#000;stroke-width:2"><path d="M78.491 150.291h-5.645v14.582h-4.662V150.29h-5.646v-3.496h15.953ZM94.372 164.873H81.296v-18.078h13.076v3.496h-8.438v3.12h7.83v3.497h-7.83v4.468h8.438zM114.672 164.873h-5.391l-3.897-5.95-3.97 5.95h-5.148l6.41-9.106-6.277-8.972h5.379l3.764 5.633 3.872-5.633h5.16l-6.313 8.79zM131.414 150.291h-5.646v14.582h-4.662V150.29h-5.645v-3.496h15.953z"/></g><rect width="107.155" height="42.861" x="-246.385" y="211.441" ry="0" style="fill:#fff;fill-opacity:1;stroke:#000;stroke-width:1.95687;stroke-dasharray:none;stroke-opacity:1" transform="rotate(-90)"/><rect width="107.392" height="33.022" x="133.28" y="19.466" ry="0" style="fill:#fff;fill-opacity:.0328467;stroke:#000;stroke-width:1.71953;stroke-dasharray:none;stroke-opacity:1"/><path d="M-242.754 215.634h99.906v34.448h-99.906z" style="fill:#7e7e7e;fill-opacity:1;stroke:#000;stroke-width:1.87991;stroke-dasharray:none;stroke-opacity:1" transform="rotate(-90)"/><rect width="181.095" height="62.884" x="-246.401" y="270.22" ry="0" style="fill:#fff;fill-opacity:1;stroke:#000;stroke-width:1.75747;stroke-dasharray:none;stroke-opacity:1" transform="rotate(-90)"/><path d="M-242.518 275.129h172.689v53.544h-172.689z" style="fill:#fff;fill-opacity:1;stroke:#000;stroke-width:2;stroke-dasharray:none;stroke-opacity:1" transform="rotate(-90)"/></svg>