<svg xmlns="http://www.w3.org/2000/svg" fill="none" viewBox="0 0 348 348"><path stroke="#000" stroke-width="2" d="M4.956 5.254h337.159v258.723H4.956z"/><ellipse cx="308.29" cy="36.55" stroke="#000" stroke-width="2" rx="15.9" ry="15.51"/><text xml:space="preserve" x="41.719" y="167.584" style="font-size:24px;fill:#000;fill-opacity:0;stroke:#000;stroke-width:2;stroke-dasharray:none;stroke-opacity:1;text-anchor:middle;text-align:center"/><rect width="307.582" height="127.146" x="-327.234" y="-199.274" ry="0" style="fill:#fff;fill-opacity:1;stroke:#000;stroke-width:3.25683;stroke-dasharray:none;stroke-opacity:1" transform="scale(-1)"/><path d="M-320.639-189.348h293.306v108.26h-293.306z" style="fill:#fff;fill-opacity:1;stroke:#000;stroke-width:3.70627;stroke-dasharray:none;stroke-opacity:1" transform="scale(-1)"/><rect width="70.5" height="31.25" x="20.75" y="20" ry="15.625" style="fill:#fff;fill-opacity:.0328467;stroke:#000;stroke-width:2"/><rect width="3.324" height="30.449" x="42.651" y="20.651" ry="0" style="fill:#000;fill-opacity:1;stroke:#000;stroke-width:1.80119;stroke-opacity:0"/><rect width="3.324" height="30.449" x="64.963" y="20.776" ry="0" style="fill:#000;fill-opacity:1;stroke:#000;stroke-width:1.80119;stroke-opacity:0"/><path fill="none" d="M106.085 18.383h35.284v35.284h-35.284zM155.983 18.687h65.203V53.39h-65.203z" style="fill:#000;fill-opacity:0;stroke:#000;stroke-width:2;stroke-opacity:1;stroke-dasharray:none"/><path fill="none" d="M84.577 215.618h72.87v34.592h-72.87zM197.41 215.606h72.87v34.592h-72.87z" style="fill:#000;fill-opacity:0;stroke:#000;stroke-width:2;stroke-dasharray:none;stroke-opacity:1"/><path fill="none" d="M234.626 18.375h35.284v35.284h-35.284z" style="fill:#000;fill-opacity:0;stroke:#000;stroke-width:2;stroke-opacity:1;stroke-dasharray:none"/><path d="M125.691 38.75h-4.382v-4.605h4.382z" aria-label="." style="font-weight:700;font-size:24px;-inkscape-font-specification:&quot;sans-serif, Bold&quot;;text-align:center;text-anchor:middle;fill:#000;stroke:#000;stroke-width:2"/><path d="M196.969 38.102H179.53v-2.473h17.438z" aria-label="_" style="font-weight:700;font-size:24px;-inkscape-font-specification:&quot;sans-serif, Bold&quot;;text-align:center;text-anchor:middle;fill:#000;stroke:#000;stroke-width:2"/><path d="m259.766 37.078-15.657 6.504v-3.363l10.957-4.477-10.957-4.476v-3.364l15.657 6.504z" aria-label="&gt;" style="font-weight:700;font-size:24px;-inkscape-font-specification:&quot;sans-serif, Bold&quot;;text-align:center;text-anchor:middle;fill:#000;stroke:#000;stroke-width:2"/><g stroke="none" aria-label="Submit" style="font-size:24px;-inkscape-font-specification:&quot;sans-serif, Normal&quot;;text-align:center;text-anchor:middle;fill:#000;stroke:#000;stroke-width:.3"><path d="M99.538 234.108q0 1.72-1.46 2.797-1.454 1.07-3.954 1.07-1.445 0-2.523-.25-1.07-.257-2.008-.648v-2.789h.328q.93.742 2.078 1.14 1.156.4 2.219.4.273 0 .719-.048.445-.047.726-.156.344-.14.563-.352.226-.21.226-.625 0-.382-.328-.656-.32-.281-.945-.43-.656-.156-1.39-.289-.727-.14-1.368-.351-1.469-.477-2.117-1.29-.64-.82-.64-2.03 0-1.625 1.452-2.649 1.461-1.031 3.75-1.031 1.149 0 2.266.226 1.125.22 1.945.555v2.68h-.32q-.703-.563-1.727-.938-1.015-.382-2.078-.382-.375 0-.75.054-.367.047-.71.188-.305.117-.524.36-.219.233-.219.538 0 .461.352.711.351.242 1.328.445.64.133 1.226.258.594.125 1.274.344 1.336.437 1.969 1.195.64.75.64 1.953zM110.179 237.765h-2.813v-.97q-.78.595-1.43.907-.648.305-1.546.305-1.453 0-2.242-.836-.782-.836-.782-2.469v-5.71h2.829v4.35q0 .665.039 1.11.047.438.203.727.148.289.445.422.305.132.844.132.36 0 .797-.132.437-.133.843-.391v-6.219h2.813zM121.991 233.257q0 2.07-1.148 3.375-1.14 1.305-2.852 1.305-.734 0-1.289-.157-.554-.156-1.054-.453l-.118.438h-2.695v-12.157h2.813v4.297q.648-.515 1.32-.836.68-.32 1.562-.32 1.665 0 2.563 1.203.898 1.195.898 3.305zm-2.898.055q0-1.172-.398-1.805-.399-.633-1.422-.633-.399 0-.82.125-.423.117-.805.344v4.406q.304.11.578.148.273.04.656.04 1.117 0 1.664-.657.547-.656.547-1.968zM132.6 231.546v6.219h-2.827v-4.383q0-.64-.032-1.086-.03-.453-.171-.734-.141-.282-.43-.407-.281-.133-.797-.133-.414 0-.805.172-.39.164-.703.352v6.219h-2.812v-8.774h2.812v.969q.727-.57 1.39-.89.665-.321 1.47-.321.867 0 1.53.39.665.383 1.04 1.133.844-.71 1.64-1.117.797-.406 1.563-.406 1.422 0 2.156.852.742.851.742 2.453v5.71h-2.828v-4.382q0-.649-.03-1.094-.024-.445-.165-.726-.133-.282-.422-.407-.289-.133-.812-.133-.352 0-.688.125-.336.118-.82.399zM143.765 237.765h-2.813v-8.774h2.813zm.078-10.024h-2.969v-2.133h2.969zM152.03 237.687q-.453.117-.96.18-.508.07-1.243.07-1.64 0-2.445-.665-.797-.664-.797-2.273v-4.102h-1.156v-1.906h1.156v-2.508h2.813v2.508h2.632v1.906h-2.632v3.11q0 .46.008.805.008.343.125.617.109.273.382.437.282.156.813.156.219 0 .57-.093.36-.094.5-.172h.235z" style="font-weight:700;font-size:16px;-inkscape-font-specification:&quot;sans-serif, Bold&quot;;stroke-opacity:0"/></g><g aria-label="Submit" style="font-size:24px;-inkscape-font-specification:&quot;sans-serif, Normal&quot;;text-align:center;text-anchor:middle;fill:#000;stroke:#000;stroke-width:.3"><g stroke="none" aria-label="Clear" style="font-weight:700;font-size:16px;-inkscape-font-specification:&quot;sans-serif, Bold&quot;;stroke-opacity:0"><path d="M217.108 238.345q-1.297 0-2.398-.383-1.094-.383-1.883-1.14-.79-.758-1.227-1.891-.43-1.133-.43-2.617 0-1.383.415-2.508.414-1.125 1.203-1.93.757-.773 1.875-1.195 1.125-.422 2.453-.422.734 0 1.32.086.594.078 1.094.21.523.15.945.337.43.18.75.336v2.82h-.344q-.218-.188-.554-.445-.328-.258-.75-.508-.43-.25-.93-.422t-1.07-.172q-.633 0-1.203.203-.57.195-1.055.656-.461.446-.75 1.18-.281.734-.281 1.781 0 1.094.304 1.828.313.735.782 1.157.476.43 1.062.617.586.18 1.156.18.547 0 1.078-.164.54-.165.993-.446.382-.226.71-.484.329-.258.54-.445h.312v2.78q-.437.196-.836.368-.398.172-.836.297-.57.164-1.07.25-.5.086-1.375.086zM226.085 238.118h-2.813v-12.156h2.813zM237.381 234.251h-6.437q.062 1.031.781 1.578.727.547 2.133.547.89 0 1.727-.32.835-.32 1.32-.688h.312v2.258q-.953.383-1.797.555-.843.172-1.867.172-2.64 0-4.047-1.188-1.406-1.187-1.406-3.383 0-2.172 1.328-3.437 1.336-1.274 3.657-1.274 2.14 0 3.218 1.086 1.078 1.078 1.078 3.11zm-2.796-1.648q-.024-.883-.438-1.329-.414-.445-1.289-.445-.813 0-1.336.422-.523.422-.586 1.352zM244.678 235.83V234q-.57.047-1.234.133-.664.078-1.008.187-.422.133-.648.391-.22.25-.22.664 0 .273.048.445.047.172.234.328.18.157.43.235.25.07.781.07.422 0 .852-.172.437-.172.765-.453zm0 1.359q-.226.171-.562.414-.336.242-.633.382-.414.188-.86.274-.445.094-.976.094-1.25 0-2.094-.774-.843-.773-.843-1.976 0-.961.43-1.57.429-.61 1.218-.962.781-.351 1.937-.5 1.157-.148 2.399-.218v-.047q0-.727-.594-1-.594-.282-1.75-.282-.695 0-1.484.25-.79.243-1.133.375h-.258v-2.117q.445-.117 1.445-.273 1.008-.164 2.016-.164 2.399 0 3.461.742 1.07.734 1.07 2.312v5.97h-2.789zM256.413 232.024h-.25q-.18-.062-.578-.093-.399-.031-.665-.031-.601 0-1.062.078-.461.078-.992.265v5.875h-2.813v-8.773h2.813v1.289q.93-.797 1.617-1.055.687-.265 1.266-.265.148 0 .336.008.187.008.328.023z"/></g></g></svg>