<svg xmlns="http://www.w3.org/2000/svg" fill="none" viewBox="0 0 348 348"><defs><clipPath id="a" clipPathUnits="userSpaceOnUse"><path d="M3.955 4.254v260.723h339.16V4.254Zm140.613 24.885c.196-.005.393.006.588.004.45.007.901.029 1.352.035.54.01 1.08.042 1.62.056.516.015 1.03.014 1.546.034a25.66 25.66 0 0 1 1.898.14c.681.06 1.363.12 2.047.104.67.001 1.34.003 2.01-.014a18.173 18.173 0 0 0 1.5-.103c.336-.03.672-.056 1.008-.088.395-.039.789-.086 1.185-.108 1.01-.056 2.02-.062 3.032-.056h1.16v.703h.664c-.008.21-.032.419-.04.629.003.141-.02.28-.03.421-.01.26-.006.521-.005.782-.007.238-.03.474-.037.713-.002.15 0 .3 0 .449l.002.767-.002 1.106v1.023c-.01.29-.03.581-.037.871l-.918-.023c.003-.133.012-.266.018-.398l-.123.011h-.4l.029 4.746c-.252.001-.503-.002-.754-.021-.45-.036-.682-.076-1.104-.098l-.265-.023c-.049-.005-.11.018-.145-.016l.002-.002c-.16-.001-.322.015-.48.002-.93.024-1.857.097-2.784.182-1.466.13-2.937.2-4.402.351-.727.097-1.453.218-2.182.301-1.152.132-2.31.204-3.468.238-1.622.02-2.133.044-3.803-.021-2.505-.097-4.995-.38-7.484-.652-.839-.083-1.307-.147-2.116-.172-.726-.023-1.455.014-2.181-.006-1-.006-2.002-.012-3.002.023-.921.042-1.84.121-2.76.178l-.37-4.82c-.187.028-.375.06-.566.074-.178.009-.43.032-.593-.03-.08-.03-.161-.062-.239-.101.018.438.034.876.053 1.314l-.918.04a361.714 361.714 0 0 1-.123-3.098l-.045-1.44c-.03-1.088-.041-2.178-.1-3.265l.915-.102c0 .02 0 .04.002.059.035-.01.074-.025.105-.033l.074-.014v-.098c.291.008.58.029.871.037l.024-.007c.208-.068.425-.096.64-.133.473-.097.954-.153 1.434-.197a27.145 27.145 0 0 1 2.621-.104c.854-.001 1.707-.006 2.56-.004.72.007 1.438.035 2.157.067.962.043 1.925.092 2.889.091.549-.007 1.1-.015 1.648-.043.443-.022.627-.038 1.068-.07l.51-.037c.39-.025.549-.042.93-.035.347.006.695.06 1.033.138.191.054.373.136.557.211.277-.17.586-.286.922-.365.27-.052.315-.066.607-.092.065-.005.13-.01.195-.011zm-19.084 3.369-.037.015c0 .001-.004.007-.002.006a.37.37 0 0 0 .04-.021zm19.127.31c-.02.001-.049 0-.058.002-.005.002.02.004.015.006-.023.01-.05.014-.074.02-.005.003-.021.01-.015.01a.632.632 0 0 0 .132-.038zm.795.62.01.042-.004-.025-.006-.018zm-20.04.158c.002.015.006.03.01.045a2.438 2.438 0 0 0-.005-.045h-.006zm-.128 1.781v.047c0 .014.007-.028.002-.041 0-.002 0-.004-.002-.006zm-68.297 72.95 2.498.714c.048-.384.08-.33.03-.598-.006-.03-.038-.063-.024-.091.01-.02.038.017.057.027.053.028.107.056.16.086.106.058.21.119.315.177.75.436 1.552.63 2.396.786 2.122.321 4.257.56 6.395.746 2.354.152 4.714.134 7.072.101 2-.01 3.998-.132 5.994-.246 1.588-.094 3.177-.135 4.768-.168l.013.658c1.471-.005 2.943-.011 4.412-.07l.145 2.596c-1.915.078-3.834.069-5.75.078-1.639.007-3.277.013-4.916.016l-.002-.456c-1.542.086-3.084.182-4.629.19-2.445.033-4.893.053-7.334-.11a101.381 101.381 0 0 1-6.647-.78c-.562-.108-.752-.131-1.285-.282-.396-.112-.76-.307-1.134-.475-3.6-.019-7.198-.038-10.797-.054l-.022.779a59.182 59.182 0 0 0-1.582-.03c-.225-.004-.449-.023-.674-.03.058.1.095.205.12.34.015.135.016.27.015.406h2.121c-.022 1.685.03 3.368.08 5.052.055 1.507.115 3.016.239 4.52.08.989.155 1.67.255 2.666.212 2.157.422 4.313.565 6.476.103 1.557.11 1.974.17 3.506.07 2.53-.01 5.06-.12 7.588-.047 1.628-.178 3.25-.308 4.873-.079.975-.271 1.933-.476 2.887.048.14.022.408-.03 1.135 0 .01-.113.015-.217.025-.066.302-.137.61-.193.895l-.006.039v-.016l.006-.023c.013-.068.02-.135.025-.203l-7.341-.34c.003-.058.01-.116.015-.174l-.972.027c-.161.004-.323-.004-.485 0l-2.927.63c-.366-1.884-.389-3.81-.42-5.722-.01-2.869-.035-5.738-.02-8.607.004-.606.009-1.212.01-1.818.002-1.43 0-2.514-.043-3.946a121.565 121.565 0 0 0-.268-4.845c-.035-.386-.068-.773-.105-1.159-.106-1.109-.118-1.083-.213-2.222-.082-.979-.144-1.958-.2-2.938a37.02 37.02 0 0 1-.001-3.828c.05-.873.163-1.738.297-2.601.103-.69.324-1.353.539-2.014.048-.194-.005.012.105-.358a.297.297 0 0 0 .01-.039c-.012.04-.043.16-.035.12.008-.042.047-.202.072-.31l3.414.675c.01-.09.012-.18.024-.27.04-.374.07-.751.146-1.12l.098.013c.036-.037.07-.076.111-.11l.068-.048c-.312-.006-.625-.007-.937-.016v-1.299c2.959.077 5.919.107 8.879.133 2.994.014 5.988.03 8.982.047-.12-.137-.267-.246-.353-.418a1.577 1.577 0 0 1-.17-.49c-.03-.226.01-.456.015-.684zm187.875 1.454c.687.002 1.375.02 2.06.06v1.3l-.292-.01c-.074-.003-.147 0-.22-.004l.001.002c.053.117.057.293.067.42.006.466-.11.923-.198 1.378-.054.35-.129.696-.15 1.05-.035.313-.032.63-.033.945.002.477-.01.955.025 1.431.034.507.069 1.013.102 1.52.024.499.035.997.064 1.496.02.362.043.724.059 1.086l.012.295c.04.01.08.019.119.03-.004.005-.008.01-.012.019.028.005.056.01.084.013-.005-.009-.009-.013-.014-.02.047.009.123-.004.121.038-.04.933.12.923-.244.89-.005 0-.01 0-.015-.002l.011.295c.023.488.025.977.024 1.465.008.432-.022.861-.053 1.291a9.764 9.764 0 0 0-.064 1.074c-.015.389-.03.778-.051 1.166-.03.429-.053.858-.059 1.288.003.106-.004.212-.011.318.04.193.079.387.109.582.033.18.076.363.08.547.007.274-.057.545-.139.805-.049.126-.092.253-.148.377-.018.04-.04.077-.059.117.268.225.183.352.096.627-.131.211 0 .003-.137.216-.017.028-.03.06-.052.084-.007.008-.026-.03-.028.004 0 .024.002.046.004.069.023.17.05.34.084.508.058.268.09.54.096.814h-.338c.088.126.219.216.293.35.033.074.068.147.098.222.12.308.188.638.213.967.003.28.008.56-.004.84-.023.39-.076.777-.116 1.166a9.744 9.744 0 0 0-.093 1.303c.005.4.02.8.054 1.199.01.253.043.503.053.756.016.342.06.684.05 1.027 0 .256-.003.512-.001.768.006.175.038.345.055.52 0 .144 0 .29-.002.435-.001.12-.003.24.004.361.036.165.058.33.048.5 0 .112 0 .225.002.336.001.141.004.283 0 .424-.008.13-.019.264-.05.39-.003.217-.011.433-.047.647-.004 0-.003.486-.006.525-.011.279-.041.554-.075.83-.004.031-.03.155-.03.196-.006.104.004.208 0 .312-.002.166-.006.33 0 .496.007.177.04.352.046.528.006.146.084.275.096.422.023.224.026.45.014.675-.024.253-.074.501-.174.735.172-.008.343-.017.515-.02v1.3c-.277.006-.554.03-.832.032-.2.002-.354-.011-.533-.011-.02.252-.042.504-.072.755l-6.899-.964-.373-.014c0 .012-.003.01-.004 0l-1.705-.063c-1.877-.069-3.756-.13-5.633-.212l.057-1.297c1.873.081 3.747.141 5.621.21l1.73.063c.008-.174.016-.347.018-.521.03-.968.037-1.935-.01-2.903a34.574 34.574 0 0 1-.017-1.855c-.04-1.473-.238-2.935-.3-4.406a139.035 139.035 0 0 1-.171-4.588c-.04-2.175-.01-1.318-.022-3.377-.003-.528-.011-1.056-.017-1.584-.087-3.166-.246-6.33-.248-9.498.006-2.436-.004-4.874.076-7.309h3.193c.005-.193.005-.387.012-.58.013-.316.012-.632.012-.95l-.002-1.04c.005-.082.008-.156.015-.227-1.416.082-2.832.155-4.25.213l-.052-1.299c1.616-.066 3.232-.143 4.847-.242.552-.028 1.103-.063 1.655-.086a47.841 47.841 0 0 1 2.06-.04zm-122.312 115.23h.918c0 .358.002.148.002.626 0 1.427-.005 2.855-.01 4.283.074-.028.141-.033.256-.047.276-.003.552.009.828.012h.129l.234-.936c-.626-.115-.452-.048-.156-.033.265.021.521.014.789.014.85 0 1.7.01 2.55.039.779.038 1.096.037 1.844.129.484.06.804.125 1.272.238.034.008-.11-.014-.105-.002.28.051.728.058.998.07 1.007.046 2.016.054 3.025.063 3.223-.006 6.444-.012 9.666-.1 1.969-.081 2.233-.082 4.26-.21 2.767-.176 5.527-.424 8.293-.614.89-.04 1.78-.08 2.672-.094a32.27 32.27 0 0 1 2.671.057l-.035.431c.12-.012.203-.022.293-.033 0 0-.002.03-.12-2.318l.917-.047c.21 4.127-.024-.43.211 4.059.057 1.092.15 2.82.186 3.94.028.888.022.963.011 1.64h-.918c.002-.157-.004-.268-.002-.377h-.625v-.246c-.043.007-.087.016-.13.021-.126.015-.252.007-.378.004l-.021.25c-1.464-.08-2.93-.012-4.393.057-2.708.192-5.413.43-8.123.601-2.13.135-2.387.136-4.463.223-3.318.093-6.639.1-9.959.105-1.634-.024-3.276-.008-4.904-.183-.163-.028-.327-.049-.488-.084-.185-.04-.366-.1-.55-.143-.023-.006-.047-.002-.07-.004-.087-.01-.173-.025-.261-.033-.411-.038-.67-.04-1.11-.059-1.155-.057-2.313.006-3.468-.06a6.78 6.78 0 0 1-1.166-.172l.056-.223-.757-.076c.035-.33.055-.49.074-.857.024-.479.033-1.137.037-1.606.005-.637.003-1.275.006-1.912.011-1.922.013-3.845.014-5.767v-.625z" style="fill:red;fill-opacity:1;fill-rule:nonzero;stroke:none"/></clipPath><clipPath id="b" clipPathUnits="userSpaceOnUse"><path d="M40.74 30.346v79.418c2.575.056 5.151.085 7.727.107 2.994.014 5.988.03 8.982.047-.12-.137-.267-.246-.353-.418a1.577 1.577 0 0 1-.17-.49c-.03-.226.01-.456.015-.684l2.498.715c.048-.384.08-.33.03-.598-.006-.03-.038-.063-.024-.091.01-.02.038.017.057.027.053.028.107.056.16.086.106.058.21.119.315.178.75.435 1.552.63 2.396.785 2.122.321 4.257.56 6.395.746 2.354.152 4.714.134 7.072.101 2-.01 3.998-.132 5.994-.246 1.588-.094 3.177-.135 4.768-.168l.013.658c1.471-.005 2.943-.011 4.412-.07l.145 2.596c-1.915.078-3.834.069-5.75.078-1.639.007-3.277.013-4.916.016l-.002-.456c-1.542.086-3.084.182-4.629.19-2.445.033-4.893.053-7.334-.11a101.381 101.381 0 0 1-6.647-.78c-.562-.108-.752-.131-1.285-.282-.396-.112-.76-.307-1.134-.475-3.6-.019-7.198-.038-10.797-.054l-.022.78h-.004c.009 1.245.047 2.491.084 3.737.055 1.507.115 3.016.239 4.52.08.989.155 1.67.255 2.666.212 2.157.422 4.313.565 6.476.103 1.557.11 1.974.17 3.506.07 2.53-.01 5.06-.12 7.588-.047 1.628-.178 3.25-.308 4.873-.097 1.203-.36 2.381-.617 3.557-.096.398-.177.793-.254 1.176.616-.006.46-.02.365 1.289-.001.022-.413.05-.451.052-.19.016-.379.03-.568.041l-.004-.074c-1.047.022-2.094.06-3.14.088-1.377.04-2.752.078-4.128.113v83.772h81.678c.01-.119.02-.24.03-.41.024-.479.032-1.137.036-1.606.005-.637.003-1.275.006-1.912.011-1.922.014-3.845.014-5.767v-.625h.918c0 .357.002.147.002.625 0 1.427-.005 2.855-.01 4.283.074-.028.141-.033.256-.047.152-.002.305.002.457.006l.734-2.93c-.626-.115-.452-.048-.156-.033.265.021.521.014.79.014.85 0 1.7.01 2.55.039.778.038 1.095.037 1.844.129.483.06.803.125 1.271.238.034.008-.11-.014-.105-.002.28.051.728.058.998.07 1.007.046 2.017.054 3.025.063 3.223-.006 6.445-.012 9.666-.1 1.969-.081 2.233-.082 4.26-.21 2.767-.176 5.527-.424 8.293-.614.89-.04 1.78-.08 2.672-.094a32.27 32.27 0 0 1 2.672.057l-.27 3.223.049-.034c.046-.155.098-.306.125-.466.003-.015.05-.29.058-.292.122-.012.204-.022.295-.033 0 0-.002.03-.12-2.318l.917-.047c.21 4.127-.023-.43.211 4.059.057 1.092.15 2.82.186 3.94.012.38.017.601.02.794h81.614v-83.725c-1.327.011-2.121-.031-3.609-.084-1.958-.068-3.916-.143-5.875-.212-1.877-.07-3.756-.132-5.633-.213l.057-1.297c1.873.081 3.747.141 5.621.21l3.012.11a2.078 2.078 0 0 1-.168-.08c-.29-.181-.294-.148-.512-.457-.034-.048-.048-.108-.068-.162l-.002-.004-.596-.084c.003-.053.005-.122.014-.266.032-.505.061-1.01.068-1.515.03-.968.037-1.935-.01-2.903a34.574 34.574 0 0 1-.018-1.855c-.039-1.473-.237-2.935-.298-4.406a139.035 139.035 0 0 1-.172-4.588c-.04-2.175-.01-1.318-.022-3.377-.003-.528-.011-1.056-.017-1.584-.087-3.166-.246-6.33-.248-9.498.006-2.436-.004-4.874.076-7.309h3.217l-.002-.57c.005-.082.008-.157.015-.227-1.416.082-2.833.155-4.25.213l-.053-1.299c1.617-.066 3.233-.143 4.848-.242.552-.028 1.103-.063 1.654-.086a47.841 47.841 0 0 1 2.06-.04c.304 0 .608.005.911.013v-79.45h-81.582c-.003.043-.004.087-.006.13.002.141-.021.28-.031.421-.01.26-.005.521-.004.782-.007.238-.03.474-.037.713-.002.15 0 .3 0 .449l.002.767-.002 1.106v1.023c-.01.29-.03.581-.037.871l-.918-.023c.003-.133.011-.266.017-.398l-.123.011h-.388l.017 2.746c-.251.001-.503-.002-.754-.021-.45-.036-.682-.076-1.103-.098l-.266-.023c-.048-.005-.11.018-.144-.016l.002-.002c-.16-.001-.322.015-.48.002-.93.024-1.858.097-2.784.182-1.467.13-2.937.2-4.402.351-.728.097-1.453.218-2.182.301-1.152.132-2.31.204-3.469.238-1.621.02-2.133.044-3.803-.021-2.504-.097-4.994-.38-7.484-.652-.838-.083-1.306-.147-2.115-.172-.727-.023-1.455.014-2.182-.006-1-.006-2.002-.012-3.002.023-.92.042-1.84.121-2.76.178l-.218-2.84c-.239.035-.476.076-.717.094-.178.009-.43.032-.594-.03-.08-.03-.16-.062-.238-.101.018.438.034.876.053 1.314l-.918.04a361.714 361.714 0 0 1-.123-3.098c-.015-.48-.032-.96-.045-1.44-.026-.933-.04-1.867-.08-2.8zm84.498 5.031v.047c0 .014.007-.028.002-.041 0-.002 0-.004-.002-.006zm-77.431 114.64c-.012.017-.016.036-.026.053.25-.006.499-.015.748-.02zm91.664 84.944-.006.002v.002c0 .003.003 0 .006-.004zm-.043.008c-.006 0-.01 0-.016.002-.012.017-.009.014.016-.002z" style="fill:red;fill-opacity:1;fill-rule:nonzero;stroke:none"/></clipPath></defs><path stroke="#000" stroke-width="2" d="M4.956 5.254h337.159v258.723H4.956z" clip-path="url(#a)"/><ellipse cx="308.29" cy="36.55" stroke="#000" stroke-width="2" rx="15.9" ry="15.51"/><text xml:space="preserve" x="41.719" y="167.584" style="font-size:24px;fill:#000;fill-opacity:0;stroke:#000;stroke-width:2;stroke-dasharray:none;stroke-opacity:1;text-anchor:middle;text-align:center"/><path d="M43.24 32.846h199.986v199.986H43.24z" clip-path="url(#b)" style="fill:none;stroke:#000;stroke-width:5;stroke-dasharray:none" transform="translate(0 2)"/><path d="M75.217 18.359H46.188l7.257-12.57 7.258-12.57 7.257 12.57z" style="fill:#000;fill-opacity:1;stroke:#000;stroke-width:5;stroke-dasharray:none" transform="matrix(1.07216 0 0 .50344 78.462 15.949)"/><path d="M75.217 18.359H46.188l7.257-12.57 7.258-12.57 7.257 12.57z" style="fill:#000;fill-opacity:1;stroke:#000;stroke-width:5;stroke-dasharray:none" transform="matrix(-1.07216 0 0 -.50344 208.524 253.282)"/><path d="M75.217 18.359H46.188l7.257-12.57 7.258-12.57 7.257 12.57z" style="fill:#000;fill-opacity:1;stroke:#000;stroke-width:5;stroke-dasharray:none" transform="matrix(0 -1.07216 .50344 0 24.29 197.755)"/><path d="M75.217 18.359H46.188l7.257-12.57 7.258-12.57 7.257 12.57z" style="fill:#000;fill-opacity:1;stroke:#000;stroke-width:5;stroke-dasharray:none" transform="matrix(0 1.07216 -.50344 0 261.623 67.693)"/><circle cx="71.204" cy="57.204" r="4.704" style="fill:#000;fill-opacity:1;stroke:#000;stroke-width:5;stroke-dasharray:none"/><circle cx="109.175" cy="57.204" r="4.704" style="fill:#000;fill-opacity:1;stroke:#000;stroke-width:5;stroke-dasharray:none"/><circle cx="144.784" cy="57.204" r="4.704" style="fill:#000;fill-opacity:1;stroke:#000;stroke-width:5;stroke-dasharray:none"/><circle cx="182.755" cy="57.204" r="4.704" style="fill:#000;fill-opacity:1;stroke:#000;stroke-width:5;stroke-dasharray:none"/><circle cx="218.331" cy="57.182" r="4.704" style="fill:#000;fill-opacity:1;stroke:#000;stroke-width:5;stroke-dasharray:none;stroke-opacity:1"/><circle cx="71.008" cy="93.119" r="4.704" style="fill:#000;fill-opacity:1;stroke:#000;stroke-width:5;stroke-dasharray:none"/><circle cx="108.979" cy="93.119" r="4.704" style="fill:#000;fill-opacity:1;stroke:#000;stroke-width:5;stroke-dasharray:none"/><circle cx="144.588" cy="93.119" r="4.704" style="fill:#000;fill-opacity:1;stroke:#000;stroke-width:5;stroke-dasharray:none"/><circle cx="182.559" cy="93.119" r="4.704" style="fill:#000;fill-opacity:1;stroke:#000;stroke-width:5;stroke-dasharray:none"/><circle cx="218.135" cy="93.097" r="4.704" style="fill:#000;fill-opacity:1;stroke:#000;stroke-width:5;stroke-dasharray:none;stroke-opacity:1"/><circle cx="71.066" cy="131.154" r="4.704" style="fill:#000;fill-opacity:1;stroke:#000;stroke-width:5;stroke-dasharray:none"/><circle cx="109.037" cy="131.154" r="4.704" style="fill:#000;fill-opacity:1;stroke:#000;stroke-width:5;stroke-dasharray:none"/><circle cx="144.646" cy="131.154" r="4.704" style="fill:#000;fill-opacity:1;stroke:#000;stroke-width:5;stroke-dasharray:none"/><circle cx="182.618" cy="131.154" r="4.704" style="fill:#000;fill-opacity:1;stroke:#000;stroke-width:5;stroke-dasharray:none"/><circle cx="218.194" cy="131.132" r="4.704" style="fill:#000;fill-opacity:1;stroke:#000;stroke-width:5;stroke-dasharray:none;stroke-opacity:1"/><circle cx="70.87" cy="167.069" r="4.704" style="fill:#000;fill-opacity:1;stroke:#000;stroke-width:5;stroke-dasharray:none"/><circle cx="108.841" cy="167.069" r="4.704" style="fill:#000;fill-opacity:1;stroke:#000;stroke-width:5;stroke-dasharray:none"/><circle cx="144.45" cy="167.069" r="4.704" style="fill:#000;fill-opacity:1;stroke:#000;stroke-width:5;stroke-dasharray:none"/><circle cx="182.422" cy="167.069" r="4.704" style="fill:#000;fill-opacity:1;stroke:#000;stroke-width:5;stroke-dasharray:none"/><circle cx="217.998" cy="167.047" r="4.704" style="fill:#000;fill-opacity:1;stroke:#000;stroke-width:5;stroke-dasharray:none;stroke-opacity:1"/><circle cx="70.66" cy="202.797" r="4.704" style="fill:#000;fill-opacity:1;stroke:#000;stroke-width:5;stroke-dasharray:none"/><circle cx="108.631" cy="202.797" r="4.704" style="fill:#000;fill-opacity:1;stroke:#000;stroke-width:5;stroke-dasharray:none"/><circle cx="144.24" cy="202.797" r="4.704" style="fill:#000;fill-opacity:1;stroke:#000;stroke-width:5;stroke-dasharray:none"/><circle cx="182.211" cy="202.797" r="4.704" style="fill:#000;fill-opacity:1;stroke:#000;stroke-width:5;stroke-dasharray:none"/><circle cx="217.788" cy="202.775" r="4.704" style="fill:#000;fill-opacity:1;stroke:#000;stroke-width:5;stroke-dasharray:none;stroke-opacity:1"/><path d="m159.876 107.49-13.822-4.358-11.8 8.415-.127-14.492-11.65-8.622 13.744-4.6 4.6-13.743 8.62 11.65 14.493.127-8.415 11.8z" style="fill:none;fill-opacity:1;stroke:#000;stroke-width:2;stroke-dasharray:none;stroke-opacity:1" transform="matrix(.78367 0 0 .78367 31.399 20.8)"/><path d="m159.876 107.49-13.822-4.358-11.8 8.415-.127-14.492-11.65-8.622 13.744-4.6 4.6-13.743 8.62 11.65 14.493.127-8.415 11.8z" style="fill:none;fill-opacity:1;stroke:#000;stroke-width:2;stroke-dasharray:none;stroke-opacity:1" transform="matrix(.78367 0 0 .78367 31.34 95.024)"/></svg>