<svg xmlns="http://www.w3.org/2000/svg" fill="none" viewBox="0 0 348 348"><path stroke="#000" stroke-width="2" d="M4.956 5.254h337.159v258.723H4.956z"/><ellipse cx="308.29" cy="36.55" stroke="#000" stroke-width="2" rx="15.9" ry="15.51"/><text xml:space="preserve" x="41.719" y="167.584" style="font-size:24px;fill:#000;fill-opacity:0;stroke:#000;stroke-width:2;stroke-dasharray:none;stroke-opacity:1;text-anchor:middle;text-align:center"/><path d="M11.525 19.775h269.694v201.55H11.525z" style="fill:none;stroke:#000;stroke-width:2.20491"/><path d="M18.468 53.96h255.808v127.795H18.468z" style="fill:#000;fill-opacity:1;stroke:#000;stroke-width:2.21425;stroke-opacity:1"/><path d="M20.579 58.082h39.319v118.405H20.579zM63.48 58.082h39.319v118.405H63.48zM105.756 58.082h39.319v118.405h-39.319zM147.876 58.082h39.319v118.405h-39.319zM189.937 58.082h39.319v118.405h-39.319zM232.583 58.082h39.319v118.405h-39.319z" style="fill:#fff;fill-opacity:1;stroke:none;stroke-width:2.09446;stroke-opacity:1"/><path d="M106.14 79.923h-8.751l-2.27-6.634H82.95l-2.27 6.634h-8.53l12.123-32.82h9.743zM93.069 67.271l-4.034-11.77-4.034 11.77Z" aria-label="A" style="font-weight:700;font-size:45.1421px;-inkscape-font-specification:&quot;sans-serif, Bold&quot;;text-align:center;text-anchor:middle;fill:#000;stroke-width:3.38565" transform="matrix(.65724 0 0 1.86495 -18.339 -6.045)"/><path d="M169.334 79.924h-8.751l-2.27-6.635h-12.168l-2.27 6.635h-8.53l12.123-32.82h9.742zm-13.071-12.652-4.034-11.77-4.034 11.77z" aria-label="A" style="font-weight:700;font-size:45.1421px;-inkscape-font-specification:&quot;sans-serif, Bold&quot;;text-align:center;text-anchor:middle;fill:#000;stroke-width:3.38565" transform="matrix(.65724 0 0 1.86495 -16.013 -6.045)"/><path d="M231.831 79.924h-8.75l-2.271-6.635h-12.167l-2.27 6.635h-8.53l12.122-32.82h9.743zm-13.07-12.652-4.035-11.77-4.033 11.77z" aria-label="A" style="font-weight:700;font-size:45.1421px;-inkscape-font-specification:&quot;sans-serif, Bold&quot;;text-align:center;text-anchor:middle;fill:#000;stroke-width:3.38565" transform="matrix(.65724 0 0 1.86495 -15.486 -6.045)"/><path d="M295.224 79.924h-8.75l-2.271-6.635h-12.167l-2.27 6.635h-8.53l12.122-32.82h9.743zm-13.071-12.652-4.034-11.77-4.033 11.77z" aria-label="A" style="font-weight:700;font-size:45.1421px;-inkscape-font-specification:&quot;sans-serif, Bold&quot;;text-align:center;text-anchor:middle;fill:#000;stroke-width:3.38565" transform="matrix(.65724 0 0 1.86495 -15.274 -6.045)"/><path d="M358.209 79.924h-8.75l-2.271-6.635H335.02l-2.27 6.635h-8.53l12.122-32.82h9.743zm-13.071-12.652-4.034-11.77-4.033 11.77z" aria-label="A" style="font-weight:700;font-size:45.1421px;-inkscape-font-specification:&quot;sans-serif, Bold&quot;;text-align:center;text-anchor:middle;fill:#000;stroke-width:3.38565" transform="matrix(.65724 0 0 1.86495 -14.64 -6.045)"/><path d="M422.497 79.924h-8.75l-2.27-6.635h-12.168l-2.27 6.635h-8.53l12.123-32.82h9.742zm-13.07-12.652-4.034-11.77-4.034 11.77z" aria-label="A" style="font-weight:700;font-size:45.1421px;-inkscape-font-specification:&quot;sans-serif, Bold&quot;;text-align:center;text-anchor:middle;fill:#000;stroke-width:3.38565" transform="matrix(.65724 0 0 1.86495 -13.9 -6.045)"/><path d="M137.091 47.577H113.726l5.842-4.504 5.84-4.504 5.842 4.504zM178.323 47.577H154.958l5.841-4.504 5.842-4.504 5.841 4.504zM54.124 47.577H30.76l5.841-4.504 5.841-4.504 5.842 4.504zM95.356 47.577H71.991l5.841-4.504 5.841-4.504 5.842 4.504zM219.865 47.577H196.5l5.841-4.504 5.842-4.504 5.84 4.504zM261.097 47.577H237.732l5.841-4.504 5.842-4.504 5.84 4.504zM155.812 188.2H179.177l-5.841 4.505-5.841 4.503-5.842-4.503zM114.58 188.2H137.945l-5.841 4.505-5.841 4.504-5.842-4.504zM238.78 188.2H262.144l-5.842 4.505-5.841 4.504-5.841-4.504zM197.547 188.2h23.366l-5.842 4.505-5.84 4.504-5.842-4.504zM73.038 188.2H96.403l-5.84 4.505-5.842 4.504-5.841-4.504zM31.806 188.2h23.366l-5.842 4.505-5.841 4.504-5.841-4.504z" style="fill:#000;fill-opacity:1;stroke:#000;stroke-width:2.68508;stroke-dasharray:none"/><path d="M111.427 229.09h71.928v24.946h-71.928z" style="fill:none;stroke:#000;stroke-width:2;stroke-opacity:1"/><g aria-label="Submit" style="font-weight:700;font-size:13.3333px;-inkscape-font-specification:&quot;sans-serif, Bold&quot;;text-align:center;text-anchor:middle;fill:#000;stroke-width:2"><path d="M129.871 243.09q0 1.432-1.217 2.33-1.211.892-3.295.892-1.204 0-2.102-.208-.892-.215-1.674-.54v-2.325h.274q.775.619 1.732.95.963.333 1.849.333.227 0 .599-.04.37-.039.605-.13.286-.117.469-.293.189-.175.189-.52 0-.32-.274-.547-.267-.235-.788-.358-.546-.13-1.158-.241-.606-.118-1.14-.293-1.224-.397-1.764-1.075-.534-.683-.534-1.692 0-1.354 1.211-2.207 1.217-.86 3.125-.86.957 0 1.888.19.937.181 1.621.461v2.234h-.267q-.586-.47-1.439-.782-.846-.319-1.731-.319-.313 0-.625.046-.306.039-.593.156-.254.098-.436.3-.182.195-.182.449 0 .384.293.592.293.202 1.106.371.534.111 1.023.215.494.104 1.06.287 1.114.364 1.641.996.534.625.534 1.627zM138.738 246.136h-2.343v-.807q-.651.495-1.192.755-.54.254-1.289.254-1.21 0-1.868-.697-.651-.696-.651-2.057v-4.759h2.356v3.626q0 .554.033.925.04.364.17.605.123.241.37.352.254.11.703.11.3 0 .665-.11.364-.11.703-.326v-5.182h2.343zM148.582 242.38q0 1.725-.957 2.812-.95 1.087-2.376 1.087-.612 0-1.074-.13-.463-.13-.88-.377l-.097.364h-2.246v-10.13h2.344v3.58q.54-.429 1.1-.696.566-.267 1.302-.267 1.387 0 2.135 1.003.749.996.749 2.754zm-2.415.045q0-.976-.332-1.504-.332-.527-1.185-.527-.332 0-.684.104-.351.098-.67.287v3.672q.254.09.481.123.228.033.547.033.931 0 1.387-.547.456-.547.456-1.64zM157.423 240.954v5.182h-2.357v-3.652q0-.534-.026-.905-.026-.378-.143-.612-.117-.234-.358-.339-.234-.11-.664-.11-.345 0-.67.143-.326.137-.586.293v5.182h-2.344v-7.311h2.344v.807q.605-.475 1.158-.742.554-.267 1.224-.267.723 0 1.276.326.554.319.866.944.703-.593 1.367-.931.665-.339 1.303-.339 1.184 0 1.796.71.619.71.619 2.044v4.76h-2.357v-3.653q0-.54-.026-.912-.02-.37-.137-.605-.11-.234-.351-.339-.241-.11-.677-.11-.293 0-.573.104-.28.098-.684.332zM166.727 246.136h-2.344v-7.311h2.344zm.065-8.353h-2.474v-1.777h2.474zM173.615 246.071q-.378.098-.801.15-.423.058-1.035.058-1.368 0-2.038-.553-.664-.553-.664-1.894v-3.418h-.964v-1.589h.964v-2.09h2.344v2.09h2.194v1.589h-2.194v2.59q0 .385.007.671.007.287.104.515.09.227.319.364.234.13.677.13.182 0 .475-.078.3-.078.417-.143h.195z"/></g></svg>