<svg xmlns="http://www.w3.org/2000/svg" fill="none" viewBox="0 0 348 348"><path stroke="#000" stroke-width="2" d="M4.956 5.254h337.159v258.723H4.956z"/><ellipse cx="308.29" cy="36.55" stroke="#000" stroke-width="2" rx="15.9" ry="15.51"/><circle cx="163" cy="134.5" r="109" style="fill:#000;fill-opacity:.0145985;stroke:#000;stroke-width:2;stroke-dasharray:none;stroke-opacity:1"/><path d="M158.988 136.76H69.902a89.182 89.182 0 0 0-.039.638 89.182 89.182 0 0 0 89.125 89.178zM158.988 40.22a89.182 89.182 0 0 0-89.086 88.54h89.086zM256.182 136.672h-89.194v89.904a89.182 89.182 0 0 0 .059.004 89.182 89.182 0 0 0 89.182-89.181 89.182 89.182 0 0 0-.047-.727zM167.047 40.217a89.182 89.182 0 0 0-.059.004v88.45h89.194a89.182 89.182 0 0 0-89.135-88.454Z" style="fill:#000;fill-opacity:.0145985;stroke:#000;stroke-width:1.63636;stroke-dasharray:none;stroke-opacity:1"/></svg>