<?xml version="1.0" encoding="UTF-8" standalone="no"?>
<svg
   fill="none"
   viewBox="0 0 348 348"
   version="1.1"
   id="svg6"
   sodipodi:docname="Passwords.svg"
   inkscape:version="1.2.2 (732a01da63, 2022-12-09)"
   xmlns:inkscape="http://www.inkscape.org/namespaces/inkscape"
   xmlns:sodipodi="http://sodipodi.sourceforge.net/DTD/sodipodi-0.dtd"
   xmlns="http://www.w3.org/2000/svg"
   xmlns:svg="http://www.w3.org/2000/svg">
  <sodipodi:namedview
     id="namedview40"
     pagecolor="#ffffff"
     bordercolor="#111111"
     borderopacity="1"
     inkscape:showpageshadow="0"
     inkscape:pageopacity="0"
     inkscape:pagecheckerboard="1"
     inkscape:deskcolor="#d1d1d1"
     showgrid="false"
     inkscape:zoom="2.4051724"
     inkscape:cx="124.5233"
     inkscape:cy="105.60574"
     inkscape:window-width="1920"
     inkscape:window-height="1017"
     inkscape:window-x="-8"
     inkscape:window-y="-8"
     inkscape:window-maximized="1"
     inkscape:current-layer="svg6" />
  <defs
     id="defs10" />
  <rect
     width="337.15869"
     height="258.72275"
     x="4.9556513"
     y="5.2536316"
     stroke="#000000"
     stroke-width="2"
     id="rect2" />
  <ellipse
     cx="308.29001"
     cy="36.550003"
     stroke="#000000"
     stroke-width="2"
     rx="15.9"
     ry="15.51"
     id="ellipse4" />
  <text
     xml:space="preserve"
     style="font-size:24px;fill:#000000;fill-opacity:0;stroke:#000000;stroke-width:2;stroke-dasharray:none;stroke-opacity:1;text-anchor:middle;text-align:center"
     x="41.719296"
     y="167.5843"
     id="text16606"><tspan
       id="tspan16604"
       x="41.719296"
       y="167.5843"
       style="font-style:normal;font-variant:normal;font-weight:bold;font-stretch:normal;font-size:24px;font-family:sans-serif;-inkscape-font-specification:'sans-serif, Bold';font-variant-ligatures:normal;font-variant-caps:normal;font-variant-numeric:normal;font-variant-east-asian:normal;fill:#000000;fill-opacity:1;stroke:none;text-anchor:middle;text-align:center" /></text>
  <rect
     style="fill:none;stroke:#000000;stroke-width:2.20491"
     id="rect843"
     width="269.69437"
     height="201.5498"
     x="11.524949"
     y="19.775145" />
  <rect
     style="fill:#000000;fill-opacity:1;stroke:#000000;stroke-width:2.21425;stroke-opacity:1"
     id="rect3023"
     width="255.80756"
     height="127.795"
     x="18.46837"
     y="53.95956" />
  <rect
     style="fill:#ffffff;fill-opacity:1;stroke:none;stroke-width:2.09446;stroke-opacity:1"
     id="rect3285"
     width="39.31942"
     height="118.40504"
     x="20.579378"
     y="58.08197" />
  <rect
     style="fill:#ffffff;fill-opacity:1;stroke:none;stroke-width:2.09446;stroke-opacity:1"
     id="rect3285-0"
     width="39.31942"
     height="118.40504"
     x="63.480217"
     y="58.0821" />
  <rect
     style="fill:#ffffff;fill-opacity:1;stroke:none;stroke-width:2.09446;stroke-opacity:1"
     id="rect3285-4"
     width="39.31942"
     height="118.40504"
     x="105.75562"
     y="58.0821" />
  <rect
     style="fill:#ffffff;fill-opacity:1;stroke:none;stroke-width:2.09446;stroke-opacity:1"
     id="rect3285-41"
     width="39.31942"
     height="118.40504"
     x="147.87566"
     y="58.0821" />
  <rect
     style="fill:#ffffff;fill-opacity:1;stroke:none;stroke-width:2.09446;stroke-opacity:1"
     id="rect3285-2"
     width="39.31942"
     height="118.40504"
     x="189.93654"
     y="58.0821" />
  <rect
     style="fill:#ffffff;fill-opacity:1;stroke:none;stroke-width:2.09446;stroke-opacity:1"
     id="rect3285-25"
     width="39.31942"
     height="118.40504"
     x="232.58266"
     y="58.0821" />
  <g
     aria-label="A"
     transform="matrix(0.65723735,0,0,1.8649538,-18.338959,-6.0445542)"
     id="text4493"
     style="font-weight:bold;font-size:45.1421px;-inkscape-font-specification:'sans-serif, Bold';text-align:center;text-anchor:middle;fill:#000000;stroke-width:3.38565">
    <path
       d="m 106.13969,79.923286 h -8.750695 l -2.27033,-6.634654 H 82.951458 l -2.270331,6.634654 h -8.53027 l 12.123123,-32.8206 h 9.742583 z M 93.068755,67.271155 89.035061,55.500704 85.001367,67.271155 Z"
       id="path4858" />
  </g>
  <g
     aria-label="A"
     transform="matrix(0.65723735,0,0,1.8649538,-16.013488,-6.0445542)"
     id="text4493-1"
     style="font-weight:bold;font-size:45.1421px;-inkscape-font-specification:'sans-serif, Bold';text-align:center;text-anchor:middle;fill:#000000;stroke-width:3.38565">
    <path
       d="m 169.33362,79.923798 h -8.75069 l -2.27033,-6.634655 h -12.16721 l -2.27033,6.634655 h -8.53027 l 12.12312,-32.8206 h 9.74258 z m -13.07093,-12.652132 -4.0337,-11.770451 -4.03369,11.770451 z"
       id="path4861" />
  </g>
  <g
     aria-label="A"
     transform="matrix(0.65723735,0,0,1.8649538,-15.485886,-6.0445542)"
     id="text4493-1-4"
     style="font-weight:bold;font-size:45.1421px;-inkscape-font-specification:'sans-serif, Bold';text-align:center;text-anchor:middle;fill:#000000;stroke-width:3.38565">
    <path
       d="m 231.83104,79.923798 h -8.75069 l -2.27033,-6.634655 h -12.16721 l -2.27033,6.634655 h -8.53027 l 12.12312,-32.8206 h 9.74259 z m -13.07093,-12.652132 -4.0337,-11.770451 -4.03369,11.770451 z"
       id="path4864" />
  </g>
  <g
     aria-label="A"
     transform="matrix(0.65723735,0,0,1.8649538,-15.274178,-6.0445542)"
     id="text4493-1-49"
     style="font-weight:bold;font-size:45.1421px;-inkscape-font-specification:'sans-serif, Bold';text-align:center;text-anchor:middle;fill:#000000;stroke-width:3.38565">
    <path
       d="m 295.22397,79.923798 h -8.75069 l -2.27033,-6.634655 h -12.16721 l -2.27033,6.634655 h -8.53027 l 12.12312,-32.8206 h 9.74258 z m -13.07093,-12.652132 -4.0337,-11.770451 -4.03369,11.770451 z"
       id="path4867" />
  </g>
  <g
     aria-label="A"
     transform="matrix(0.65723735,0,0,1.8649538,-14.640048,-6.0445542)"
     id="text4493-1-5"
     style="font-weight:bold;font-size:45.1421px;-inkscape-font-specification:'sans-serif, Bold';text-align:center;text-anchor:middle;fill:#000000;stroke-width:3.38565">
    <path
       d="m 358.20895,79.923798 h -8.75069 l -2.27033,-6.634655 h -12.16721 l -2.27033,6.634655 h -8.53027 l 12.12313,-32.8206 h 9.74258 z m -13.07093,-12.652132 -4.03369,-11.770451 -4.0337,11.770451 z"
       id="path4870" />
  </g>
  <g
     aria-label="A"
     transform="matrix(0.65723735,0,0,1.8649538,-13.899795,-6.0445542)"
     id="text4493-1-9"
     style="font-weight:bold;font-size:45.1421px;-inkscape-font-specification:'sans-serif, Bold';text-align:center;text-anchor:middle;fill:#000000;stroke-width:3.38565">
    <path
       d="m 422.49737,79.923798 h -8.75069 l -2.27033,-6.634655 h -12.1672 l -2.27033,6.634655 h -8.53027 l 12.12312,-32.8206 h 9.74258 z m -13.07093,-12.652132 -4.03369,-11.770451 -4.03369,11.770451 z"
       id="path4873" />
  </g>
  <path
     style="fill:#000000;fill-opacity:1;stroke:#000000;stroke-width:2.68508;stroke-dasharray:none"
     id="path959"
     d="m 137.0915,47.577101 h -11.68263 -11.68262 l 5.84131,-4.503872 5.84131,-4.50387 5.84131,4.50387 z" />
  <path
     style="fill:#000000;fill-opacity:1;stroke:#000000;stroke-width:2.68508;stroke-dasharray:none"
     id="path959-4"
     d="m 178.3234,47.57702 h -11.68261 -11.68262 l 5.8413,-4.503872 5.84132,-4.50387 5.84131,4.50387 z" />
  <path
     style="fill:#000000;fill-opacity:1;stroke:#000000;stroke-width:2.68508;stroke-dasharray:none"
     id="path959-89"
     d="M 54.12407,47.57702 H 42.441453 30.758837 l 5.841307,-4.503872 5.841309,-4.50387 5.841309,4.50387 z" />
  <path
     style="fill:#000000;fill-opacity:1;stroke:#000000;stroke-width:2.68508;stroke-dasharray:none"
     id="path959-4-0"
     d="M 95.355984,47.57702 H 83.673368 71.99075 l 5.841308,-4.503872 5.84131,-4.50387 5.841307,4.50387 z" />
  <path
     style="fill:#000000;fill-opacity:1;stroke:#000000;stroke-width:2.68508;stroke-dasharray:none"
     id="path959-8"
     d="m 219.86524,47.57702 h -11.68263 -11.68262 l 5.84131,-4.503872 5.84131,-4.50387 5.84131,4.50387 z" />
  <path
     style="fill:#000000;fill-opacity:1;stroke:#000000;stroke-width:2.68508;stroke-dasharray:none"
     id="path959-4-3"
     d="M 261.09713,47.57702 H 249.41452 237.7319 l 5.8413,-4.503872 5.84132,-4.50387 5.84131,4.50387 z" />
  <path
     style="fill:#000000;fill-opacity:1;stroke:#000000;stroke-width:2.68508;stroke-dasharray:none"
     id="path959-7"
     d="m 155.81197,188.20069 h 11.68262 11.68262 l -5.84131,4.50386 -5.84131,4.50388 -5.84131,-4.50388 z" />
  <path
     style="fill:#000000;fill-opacity:1;stroke:#000000;stroke-width:2.68508;stroke-dasharray:none"
     id="path959-4-9"
     d="m 114.58006,188.20077 h 11.68262 11.68262 l -5.84131,4.50386 -5.84131,4.50388 -5.84132,-4.50388 z" />
  <path
     style="fill:#000000;fill-opacity:1;stroke:#000000;stroke-width:2.68508;stroke-dasharray:none"
     id="path959-89-6"
     d="m 238.77939,188.20077 h 11.68262 11.68262 l -5.84131,4.50386 -5.84131,4.50388 -5.84131,-4.50388 z" />
  <path
     style="fill:#000000;fill-opacity:1;stroke:#000000;stroke-width:2.68508;stroke-dasharray:none"
     id="path959-4-0-2"
     d="m 197.54748,188.20077 h 11.68262 11.68262 l -5.84132,4.50386 -5.8413,4.50388 -5.84132,-4.50388 z" />
  <path
     style="fill:#000000;fill-opacity:1;stroke:#000000;stroke-width:2.68508;stroke-dasharray:none"
     id="path959-8-3"
     d="M 73.038234,188.20077 H 84.72085 96.403469 l -5.84131,4.50386 -5.841309,4.50388 -5.841307,-4.50388 z" />
  <path
     style="fill:#000000;fill-opacity:1;stroke:#000000;stroke-width:2.68508;stroke-dasharray:none"
     id="path959-4-3-6"
     d="m 31.80633,188.20077 h 11.682616 11.682618 l -5.841309,4.50386 -5.841309,4.50388 -5.841307,-4.50388 z" />
  <rect
     style="fill:none;stroke:#000000;stroke-width:2;stroke-opacity:1"
     id="rect1604"
     width="71.928314"
     height="24.946236"
     x="111.42653"
     y="229.0896" />
  <g
     aria-label="Submit"
     id="text1660"
     style="font-weight:bold;font-size:13.3333px;-inkscape-font-specification:'sans-serif, Bold';text-align:center;text-anchor:middle;fill:#000000;stroke-width:2"
     transform="translate(-0.2078853,0.83154122)">
    <path
       d="m 130.07908,242.25779 q 0,1.43229 -1.21744,2.33072 -1.21093,0.89193 -3.29426,0.89193 -1.20443,0 -2.10286,-0.20834 -0.89193,-0.21484 -1.67317,-0.54036 v -2.32421 h 0.27343 q 0.77474,0.61849 1.73177,0.95052 0.96354,0.33203 1.84895,0.33203 0.22787,0 0.59896,-0.0391 0.37109,-0.0391 0.60547,-0.13021 0.28645,-0.11719 0.46875,-0.29297 0.1888,-0.17578 0.1888,-0.52083 0,-0.31901 -0.27344,-0.54688 -0.26693,-0.23437 -0.78776,-0.35807 -0.54687,-0.13021 -1.15885,-0.24088 -0.60547,-0.11719 -1.13932,-0.29297 -1.22396,-0.39714 -1.76432,-1.07422 -0.53385,-0.68359 -0.53385,-1.6927 0,-1.35416 1.21093,-2.20703 1.21745,-0.85937 3.125,-0.85937 0.95702,0 1.88801,0.1888 0.9375,0.18229 1.62109,0.46224 v 2.23307 h -0.26693 q -0.58593,-0.46875 -1.43879,-0.78125 -0.84636,-0.31901 -1.73177,-0.31901 -0.3125,0 -0.625,0.0456 -0.30599,0.0391 -0.59244,0.15625 -0.25391,0.0977 -0.4362,0.29948 -0.18229,0.19531 -0.18229,0.44922 0,0.38411 0.29297,0.59244 0.29296,0.20183 1.10676,0.3711 0.53386,0.11067 1.02214,0.21484 0.49479,0.10417 1.06119,0.28646 1.11328,0.36458 1.64062,0.99609 0.53385,0.625 0.53385,1.6276 z"
       id="path1766" />
    <path
       d="m 138.94625,245.30466 h -2.34374 v -0.80729 q -0.65104,0.49479 -1.19141,0.7552 -0.54036,0.25391 -1.28906,0.25391 -1.21093,0 -1.86848,-0.69661 -0.65104,-0.69662 -0.65104,-2.05729 v -4.7591 h 2.35676 v 3.62629 q 0,0.55338 0.0326,0.92448 0.0391,0.36458 0.16927,0.60546 0.12369,0.24089 0.37109,0.35157 0.2539,0.11067 0.70312,0.11067 0.29948,0 0.66406,-0.11067 0.36459,-0.11068 0.70313,-0.32552 v -5.18228 h 2.34374 z"
       id="path1768" />
    <path
       d="m 148.78997,241.54816 q 0,1.72525 -0.95702,2.81249 -0.95052,1.08724 -2.3763,1.08724 -0.61198,0 -1.07422,-0.13021 -0.46223,-0.13021 -0.8789,-0.37761 l -0.0977,0.36459 h -2.24608 v -10.13019 h 2.34374 v 3.58072 q 0.54036,-0.42968 1.10026,-0.69661 0.5664,-0.26692 1.30208,-0.26692 1.38671,0 2.13541,1.0026 0.74869,0.99609 0.74869,2.7539 z m -2.41535,0.0456 q 0,-0.97656 -0.33203,-1.5039 -0.33203,-0.52735 -1.1849,-0.52735 -0.33203,0 -0.68359,0.10417 -0.35156,0.0977 -0.67057,0.28646 v 3.67186 q 0.25391,0.0911 0.48177,0.1237 0.22786,0.0325 0.54687,0.0325 0.93099,0 1.38672,-0.54687 0.45573,-0.54687 0.45573,-1.64062 z"
       id="path1770" />
    <path
       d="m 157.6311,240.12238 v 5.18228 h -2.35677 v -3.65234 q 0,-0.53385 -0.026,-0.90494 -0.026,-0.37761 -0.14323,-0.61198 -0.11718,-0.23438 -0.35807,-0.33854 -0.23437,-0.11068 -0.66406,-0.11068 -0.34505,0 -0.67057,0.14323 -0.32552,0.13672 -0.58594,0.29297 v 5.18228 h -2.34374 v -7.31118 h 2.34374 v 0.80729 q 0.60547,-0.47526 1.15885,-0.74219 0.55339,-0.26692 1.22396,-0.26692 0.72265,0 1.27604,0.32552 0.55338,0.319 0.86588,0.944 0.70312,-0.59244 1.36719,-0.93098 0.66406,-0.33854 1.30208,-0.33854 1.18489,0 1.79687,0.70963 0.61848,0.70963 0.61848,2.04426 v 4.75911 h -2.35676 v -3.65234 q 0,-0.54036 -0.026,-0.91145 -0.0195,-0.3711 -0.13672,-0.60547 -0.11068,-0.23438 -0.35156,-0.33854 -0.24089,-0.11068 -0.67708,-0.11068 -0.29297,0 -0.57292,0.10417 -0.27995,0.0977 -0.68359,0.33203 z"
       id="path1772" />
    <path
       d="m 166.93446,245.30466 h -2.34374 v -7.31118 h 2.34374 z m 0.0651,-8.35285 h -2.47395 v -1.77734 h 2.47395 z"
       id="path1774" />
    <path
       d="m 173.82246,245.23955 q -0.3776,0.0977 -0.80078,0.14974 -0.42317,0.0586 -1.03515,0.0586 -1.36719,0 -2.03776,-0.55339 -0.66406,-0.55338 -0.66406,-1.89452 v -3.41796 h -0.96354 v -1.58854 h 0.96354 v -2.08984 h 2.34375 v 2.08984 h 2.194 v 1.58854 h -2.194 v 2.59113 q 0,0.38412 0.007,0.67058 0.007,0.28645 0.10416,0.51432 0.0911,0.22786 0.31901,0.36458 0.23438,0.13021 0.67708,0.13021 0.1823,0 0.47526,-0.0781 0.29948,-0.0781 0.41667,-0.14323 h 0.19531 z"
       id="path1776" />
  </g>
</svg>
