<?xml version="1.0" encoding="UTF-8" standalone="no"?>
<svg
   fill="none"
   viewBox="0 0 348 348"
   version="1.1"
   id="svg6"
   sodipodi:docname="Wires.svg"
   inkscape:version="1.2.2 (732a01da63, 2022-12-09)"
   xmlns:inkscape="http://www.inkscape.org/namespaces/inkscape"
   xmlns:sodipodi="http://sodipodi.sourceforge.net/DTD/sodipodi-0.dtd"
   xmlns="http://www.w3.org/2000/svg"
   xmlns:svg="http://www.w3.org/2000/svg">
  <defs
     id="defs10" />
  <sodipodi:namedview
     id="namedview8"
     pagecolor="#ffffff"
     bordercolor="#111111"
     borderopacity="1"
     inkscape:showpageshadow="0"
     inkscape:pageopacity="0"
     inkscape:pagecheckerboard="1"
     inkscape:deskcolor="#d1d1d1"
     showgrid="false"
     inkscape:zoom="2"
     inkscape:cx="127.25"
     inkscape:cy="144.5"
     inkscape:window-width="1920"
     inkscape:window-height="1017"
     inkscape:window-x="-8"
     inkscape:window-y="-8"
     inkscape:window-maximized="1"
     inkscape:current-layer="svg6" />
  <rect
     width="337.15869"
     height="258.72275"
     x="4.9556513"
     y="5.2536316"
     stroke="#000000"
     stroke-width="2"
     id="rect2" />
  <ellipse
     cx="308.29001"
     cy="36.550003"
     stroke="#000000"
     stroke-width="2"
     rx="15.9"
     ry="15.51"
     id="ellipse4" />
  <rect
     style="fill:#000000;fill-opacity:0;stroke:#000000;stroke-width:2;stroke-dasharray:none;stroke-opacity:1"
     id="rect7338"
     width="253.5"
     height="33"
     x="14"
     y="30" />
  <rect
     style="fill:#000000;fill-opacity:0;stroke:#000000;stroke-width:2;stroke-dasharray:none;stroke-opacity:1"
     id="rect7338-4"
     width="253.5"
     height="33"
     x="14.056213"
     y="200.04822" />
  <rect
     style="fill:#000000;fill-opacity:1;stroke:#000000;stroke-width:2;stroke-dasharray:none;stroke-opacity:1"
     id="rect8088"
     width="2.9375"
     height="136.6875"
     x="38.477345"
     y="63.1875" />
  <rect
     style="fill:#000000;fill-opacity:1;stroke:#000000;stroke-width:2;stroke-dasharray:none;stroke-opacity:1"
     id="rect8088-0"
     width="2.9375"
     height="136.6875"
     x="80.990517"
     y="62.884171" />
  <rect
     style="fill:#000000;fill-opacity:1;stroke:#000000;stroke-width:2;stroke-dasharray:none;stroke-opacity:1"
     id="rect8088-2"
     width="2.9375"
     height="136.6875"
     x="121.93867"
     y="63.634857" />
  <rect
     style="fill:#000000;fill-opacity:1;stroke:#000000;stroke-width:2;stroke-dasharray:none;stroke-opacity:1"
     id="rect8088-0-4"
     width="2.9375"
     height="136.6875"
     x="160.45183"
     y="63.331543" />
  <rect
     style="fill:#000000;fill-opacity:1;stroke:#000000;stroke-width:2;stroke-dasharray:none;stroke-opacity:1"
     id="rect8088-8"
     width="2.9375"
     height="136.6875"
     x="201.84172"
     y="63.281303" />
  <rect
     style="fill:#000000;fill-opacity:1;stroke:#000000;stroke-width:2;stroke-dasharray:none;stroke-opacity:1"
     id="rect8088-0-3"
     width="2.9375"
     height="136.6875"
     x="242.35487"
     y="62.977966" />
  <g
     aria-label="1   2   3   4   5   6"
     id="text10765"
     style="font-size:24px;fill:#000000;stroke:#000000">
    <path
       d="m 44.203125,55 h -9.445313 v -1.78125 h 3.632813 V 41.523437 h -3.632813 v -1.59375 q 0.738282,0 1.582032,-0.117187 0.84375,-0.128906 1.277343,-0.363281 0.539063,-0.292969 0.84375,-0.738282 0.316407,-0.457031 0.363282,-1.21875 h 1.816406 V 53.21875 h 3.5625 z"
       id="path15251" />
    <path
       d="m 85.769531,55 h -11.8125 v -2.449219 q 1.230469,-1.054687 2.460938,-2.109375 1.242187,-1.054687 2.308593,-2.097656 2.25,-2.179688 3.082032,-3.457031 0.832031,-1.289063 0.832031,-2.777344 0,-1.359375 -0.902344,-2.121094 -0.890625,-0.773437 -2.496094,-0.773437 -1.066406,0 -2.308593,0.375 -1.242188,0.375 -2.425782,1.148437 h -0.117187 v -2.460937 q 0.832031,-0.410157 2.214844,-0.75 Q 78,37.1875 79.300781,37.1875 q 2.683594,0 4.207031,1.300781 1.523438,1.289063 1.523438,3.503906 0,0.996094 -0.257813,1.863282 -0.246093,0.855468 -0.738281,1.628906 -0.457031,0.726562 -1.078125,1.429687 -0.609375,0.703125 -1.488281,1.558594 -1.253906,1.230469 -2.589844,2.390625 -1.335937,1.148438 -2.496094,2.132813 h 9.386719 z"
       id="path15253" />
    <path
       d="m 124.80469,46.597656 q 0.5625,0.503906 0.92578,1.265625 0.36328,0.761719 0.36328,1.96875 0,1.195313 -0.43359,2.191406 -0.4336,0.996094 -1.21875,1.734375 -0.87891,0.820313 -2.07422,1.21875 -1.1836,0.386719 -2.60156,0.386719 -1.45313,0 -2.85938,-0.351562 -1.40625,-0.339844 -2.30859,-0.75 V 51.8125 h 0.17578 q 0.99609,0.65625 2.34375,1.089844 1.34765,0.433593 2.60156,0.433593 0.73828,0 1.57031,-0.246093 0.83203,-0.246094 1.34766,-0.726563 0.53906,-0.515625 0.79687,-1.136719 0.26954,-0.621093 0.26954,-1.570312 0,-0.9375 -0.30469,-1.546875 -0.29297,-0.621094 -0.82031,-0.972656 -0.52735,-0.363282 -1.27735,-0.492188 -0.75,-0.140625 -1.61719,-0.140625 h -1.05468 v -1.945312 h 0.82031 q 1.78125,0 2.83594,-0.738282 1.0664,-0.75 1.0664,-2.179687 0,-0.632813 -0.26953,-1.101563 -0.26953,-0.480468 -0.75,-0.785156 -0.5039,-0.304687 -1.07812,-0.421875 -0.57422,-0.117187 -1.30078,-0.117187 -1.11329,0 -2.36719,0.398437 -1.25391,0.398438 -2.36719,1.125 h -0.11719 v -2.449219 q 0.83203,-0.410156 2.21485,-0.75 1.39453,-0.351562 2.69531,-0.351562 1.27734,0 2.25,0.234375 0.97266,0.234375 1.75781,0.75 0.84375,0.5625 1.27735,1.359375 0.43359,0.796875 0.43359,1.863281 0,1.453125 -1.03125,2.542969 -1.01953,1.078125 -2.41406,1.359375 v 0.164062 q 0.5625,0.09375 1.28906,0.398438 0.72656,0.292969 1.23047,0.738281 z"
       id="path15255" />
    <path
       d="m 167.30859,50.089844 h -2.58984 V 55 h -2.25 v -4.910156 h -8.35547 v -2.695313 l 8.44922,-9.84375 h 2.15625 v 10.664063 h 2.58984 z m -4.83984,-1.875 v -7.875 l -6.76172,7.875 z"
       id="path15257" />
    <path
       d="m 207.33984,49.457031 q 0,1.21875 -0.44531,2.332031 -0.44531,1.113282 -1.21875,1.875 -0.84375,0.820313 -2.01562,1.265625 -1.16016,0.433594 -2.69532,0.433594 -1.42968,0 -2.7539,-0.304687 -1.32422,-0.292969 -2.23828,-0.714844 v -2.472656 h 0.16406 q 0.96094,0.609375 2.25,1.042968 1.28906,0.421875 2.53125,0.421875 0.83203,0 1.60547,-0.234375 0.78515,-0.234375 1.39453,-0.820312 0.51562,-0.503906 0.77344,-1.207031 0.26953,-0.703125 0.26953,-1.628907 0,-0.902343 -0.31641,-1.523437 -0.30469,-0.621094 -0.85547,-0.996094 -0.60937,-0.445312 -1.48828,-0.621094 -0.86719,-0.1875 -1.94531,-0.1875 -1.03125,0 -1.99219,0.140625 -0.94922,0.140625 -1.64062,0.28125 v -8.988281 h 10.5 v 2.050781 h -8.23829 v 4.640625 q 0.50391,-0.04687 1.03125,-0.07031 0.52735,-0.02344 0.91407,-0.02344 1.41797,0 2.48437,0.246094 1.06641,0.234375 1.95703,0.84375 0.9375,0.644531 1.45313,1.664063 0.51562,1.019531 0.51562,2.554687 z"
       id="path15259" />
    <path
       d="m 248.30859,49.339844 q 0,2.660156 -1.75781,4.347656 -1.74609,1.675781 -4.28906,1.675781 -1.28906,0 -2.34375,-0.398437 -1.05469,-0.398438 -1.86328,-1.183594 -1.00782,-0.972656 -1.5586,-2.578125 -0.53906,-1.605469 -0.53906,-3.867188 0,-2.320312 0.49219,-4.113281 0.5039,-1.792969 1.59375,-3.1875 1.03125,-1.324219 2.66015,-2.0625 1.62891,-0.75 3.79688,-0.75 0.69141,0 1.16016,0.05859 0.46875,0.05859 0.94921,0.210937 v 2.238282 h -0.11718 q -0.32813,-0.175782 -0.9961,-0.328125 -0.65625,-0.164063 -1.34765,-0.164063 -2.51953,0 -4.01953,1.582031 -1.5,1.570313 -1.7461,4.253907 0.98438,-0.597657 1.9336,-0.902344 0.96093,-0.316406 2.21484,-0.316406 1.11328,0 1.95703,0.210937 0.85547,0.199219 1.74609,0.820313 1.03125,0.714843 1.54688,1.804687 0.52734,1.089844 0.52734,2.648438 z m -2.3789,0.09375 q 0,-1.089844 -0.32813,-1.804688 -0.3164,-0.714844 -1.05469,-1.242187 -0.53906,-0.375 -1.19531,-0.492188 -0.65625,-0.117187 -1.37109,-0.117187 -0.9961,0 -1.85156,0.234375 -0.85547,0.234375 -1.75782,0.726562 -0.0234,0.257813 -0.0352,0.503906 -0.0117,0.234375 -0.0117,0.597657 0,1.851562 0.375,2.929687 0.38672,1.066406 1.05469,1.6875 0.53906,0.515625 1.16015,0.761719 0.63281,0.234375 1.3711,0.234375 1.69921,0 2.67187,-1.03125 0.97266,-1.042969 0.97266,-2.988281 z"
       id="path15261" />
  </g>
  <g
     aria-label="X X X X X X"
     id="text10765-5"
     style="font-size:24px;letter-spacing:8.21px;fill:#000000;stroke:#000000">
    <path
       d="m 46.623047,207.27539 -6.023438,8.625 6.011719,8.82422 h -2.683594 l -4.757812,-7.18359 -4.875,7.18359 h -2.53125 l 6.082031,-8.71875 -5.941406,-8.73047 h 2.671875 l 4.699219,7.08984 4.804687,-7.08984 z"
       id="path15264" />
    <path
       d="m 87.921951,207.27539 -6.023437,8.625 6.011719,8.82422 h -2.683594 l -4.757813,-7.18359 -4.875,7.18359 h -2.53125 l 6.082032,-8.71875 -5.941407,-8.73047 h 2.671875 l 4.699219,7.08984 4.804688,-7.08984 z"
       id="path15266" />
    <path
       d="m 129.22086,207.27539 -6.02344,8.625 6.01172,8.82422 h -2.6836 l -4.75781,-7.18359 -4.875,7.18359 h -2.53125 l 6.08203,-8.71875 -5.9414,-8.73047 h 2.67187 l 4.69922,7.08984 4.80469,-7.08984 z"
       id="path15268" />
    <path
       d="m 170.51977,207.27539 -6.02344,8.625 6.01172,8.82422 h -2.68359 l -4.75782,-7.18359 -4.875,7.18359 h -2.53125 l 6.08203,-8.71875 -5.9414,-8.73047 h 2.67187 l 4.69922,7.08984 4.80469,-7.08984 z"
       id="path15270" />
    <path
       d="m 211.81866,207.27539 -6.02343,8.625 6.01172,8.82422 h -2.6836 l -4.75781,-7.18359 -4.875,7.18359 h -2.53125 l 6.08203,-8.71875 -5.94141,-8.73047 h 2.67188 l 4.69922,7.08984 4.80469,-7.08984 z"
       id="path15272" />
    <path
       d="m 253.11758,207.27539 -6.02343,8.625 6.01172,8.82422 h -2.6836 l -4.75781,-7.18359 -4.875,7.18359 h -2.53125 l 6.08203,-8.71875 -5.94141,-8.73047 h 2.67188 l 4.69922,7.08984 4.80469,-7.08984 z"
       id="path15274" />
  </g>
</svg>
