<svg xmlns="http://www.w3.org/2000/svg" class="cb-venn-diagram" text-anchor="middle" viewBox="0 0 800 650"><ellipse fill="none" stroke="#000" stroke-dasharray="15,10,4,10" stroke-width="3" rx="300" ry="160" transform="rotate(45 -187.132 572.487)"/><ellipse fill="none" stroke="#000" stroke-width="3" rx="300" ry="160" transform="rotate(-45 587.132 -393.198)"/><ellipse fill="none" stroke="#000" stroke-dasharray="3" stroke-width="3" rx="300" ry="160" transform="rotate(45 -357.843 501.777)"/><ellipse fill="none" stroke="#000" stroke-dasharray="8" stroke-width="8" rx="300" ry="160" transform="rotate(-45 757.843 -463.909)"/><path d="M235.916 141.95q0 1.95-.738 3.445-.739 1.494-1.987 2.46-1.476 1.16-3.252 1.653-1.757.492-4.482.492h-9.281v-26.174h7.752q2.865 0 4.289.211 1.424.211 2.724.879 1.442.756 2.092 1.951.65 1.178.65 2.83 0 1.864-.949 3.182-.949 1.3-2.53 2.092v.14q2.653.545 4.183 2.338 1.529 1.776 1.529 4.5zm-5.853-11.796q0-.949-.317-1.6-.316-.65-1.02-1.054-.826-.475-2.003-.58-1.178-.123-2.918-.123h-4.149v7.558h4.5q1.635 0 2.602-.158.967-.176 1.793-.703.826-.527 1.16-1.353.352-.844.352-1.987zm2.232 11.936q0-1.582-.475-2.514-.474-.931-1.722-1.582-.844-.44-2.057-.562-1.195-.141-2.918-.141h-5.467v9.738h4.606q2.285 0 3.744-.228 1.459-.246 2.39-.88.985-.685 1.442-1.564.457-.878.457-2.267z" aria-label="B" style="font-size:36px"/><path d="M586.39 148.066q-2.144.985-4.693 1.723-2.531.72-4.904.72-3.059 0-5.607-.843-2.55-.844-4.342-2.531-1.81-1.705-2.795-4.254-.985-2.567-.985-5.994 0-6.276 3.657-9.897 3.674-3.638 10.072-3.638 2.232 0 4.553.544 2.338.528 5.027 1.811v4.13h-.316q-.545-.421-1.582-1.107-1.038-.685-2.04-1.142-1.212-.545-2.76-.897-1.529-.369-3.48-.369-4.394 0-6.96 2.83-2.55 2.813-2.55 7.63 0 5.08 2.672 7.91 2.672 2.812 7.278 2.812 1.687 0 3.357-.334 1.688-.334 2.953-.861v-6.416h-7.013v-3.059h10.459z" aria-label="G" style="font-size:36px"/><path d="M112.656 350h-4.517l-8.754-10.406H94.48V350H91v-26.174h7.33q2.373 0 3.955.317 1.582.298 2.848 1.09 1.424.896 2.215 2.267.808 1.354.808 3.445 0 2.83-1.424 4.746-1.423 1.899-3.92 2.866zm-8.138-18.809q0-1.125-.405-1.986-.386-.879-1.3-1.476-.756-.51-1.793-.704-1.038-.21-2.444-.21H94.48v9.878h3.516q1.652 0 2.883-.28 1.23-.3 2.092-1.09.79-.739 1.16-1.688.387-.967.387-2.444z" aria-label="R" style="font-size:36px"/><path d="m710.969 323.826-9.211 14.695V350h-3.48v-11.11l-9.247-15.064h3.85l7.154 11.707 7.225-11.707z" aria-label="Y" style="font-size:36px"/><g aria-label="RG" style="font-size:24px"><path d="M184.133 250h-3.012l-5.836-6.938h-3.27V250h-2.32v-17.45h4.887q1.582 0 2.637.212 1.054.199 1.898.726.95.598 1.477 1.512.539.902.539 2.297 0 1.887-.95 3.164-.949 1.266-2.613 1.91zm-5.426-12.54q0-.75-.27-1.323-.257-.586-.867-.985-.504-.34-1.195-.468-.691-.141-1.629-.141h-2.73v6.586h2.343q1.102 0 1.922-.188.82-.199 1.395-.726.527-.492.773-1.125.258-.645.258-1.63zM200.938 248.71q-1.43.657-3.13 1.15-1.687.48-3.269.48-2.039 0-3.738-.563-1.7-.562-2.895-1.687-1.207-1.137-1.863-2.836-.656-1.711-.656-3.996 0-4.184 2.437-6.598 2.45-2.426 6.715-2.426 1.488 0 3.035.364 1.559.351 3.352 1.207v2.754h-.211q-.363-.282-1.055-.739-.691-.457-1.36-.761-.808-.364-1.84-.598-1.019-.246-2.32-.246-2.93 0-4.64 1.887-1.7 1.875-1.7 5.085 0 3.387 1.782 5.274 1.781 1.875 4.852 1.875 1.125 0 2.238-.223 1.125-.222 1.969-.574v-4.277h-4.676v-2.04h6.973z"/></g><g aria-label="RY" style="font-size:24px"><path d="M401.172 225h-3.012l-5.836-6.938h-3.27V225h-2.32v-17.45h4.887q1.582 0 2.637.212 1.055.199 1.898.726.95.598 1.477 1.512.539.902.539 2.297 0 1.887-.95 3.164-.949 1.266-2.613 1.91zm-5.426-12.54q0-.75-.27-1.323-.257-.586-.867-.985-.504-.34-1.195-.468-.691-.141-1.629-.141h-2.73v6.586h2.343q1.102 0 1.922-.188.82-.199 1.395-.726.527-.492.773-1.125.258-.645.258-1.63zM415.54 207.55l-6.142 9.798V225h-2.32v-7.406l-6.164-10.043h2.566l4.77 7.804 4.816-7.804z"/></g><g aria-label="BY" style="font-size:24px"><path d="M614.895 244.633q0 1.3-.493 2.297-.492.996-1.324 1.64-.984.774-2.168 1.102-1.172.328-2.988.328h-6.188v-17.45h5.168q1.91 0 2.86.141.949.141 1.816.586.961.504 1.395 1.301.433.785.433 1.887 0 1.242-.633 2.12-.632.868-1.687 1.395v.094q1.77.363 2.789 1.559 1.02 1.183 1.02 3zm-3.903-7.863q0-.633-.21-1.067-.212-.433-.68-.703-.551-.316-1.336-.387-.786-.082-1.946-.082h-2.765v5.04h3q1.09 0 1.734-.106.645-.117 1.195-.469.551-.351.774-.902.234-.563.234-1.324zm1.488 7.957q0-1.055-.316-1.676t-1.148-1.055q-.563-.293-1.371-.375-.797-.094-1.946-.094h-3.644v6.493h3.07q1.523 0 2.496-.153.973-.164 1.594-.586.656-.457.96-1.043.305-.586.305-1.511zM630.54 232.55l-6.142 9.798V250h-2.32v-7.406l-6.164-10.043h2.566l4.77 7.804 4.816-7.804z"/></g><g aria-label="BG" style="font-size:24px"><path d="M397.973 584.633q0 1.3-.493 2.297-.492.996-1.324 1.64-.984.774-2.168 1.102-1.172.328-2.988.328h-6.188v-17.45h5.168q1.91 0 2.86.141t1.816.586q.961.504 1.395 1.301.433.785.433 1.887 0 1.242-.632 2.12-.633.868-1.688 1.395v.094q1.77.363 2.79 1.559 1.019 1.183 1.019 3zm-3.903-7.863q0-.633-.21-1.067-.212-.433-.68-.703-.551-.316-1.336-.387-.785-.082-1.946-.082h-2.765v5.04h3q1.09 0 1.734-.106.645-.117 1.195-.469.551-.351.774-.902.234-.563.234-1.324zm1.489 7.957q0-1.055-.317-1.676-.316-.621-1.148-1.055-.563-.293-1.371-.375-.797-.094-1.946-.094h-3.644v6.493h3.07q1.524 0 2.496-.153.973-.164 1.594-.586.656-.457.96-1.043.306-.586.306-1.511zM415.82 588.71q-1.43.657-3.129 1.15-1.687.48-3.27.48-2.038 0-3.737-.563-1.7-.562-2.895-1.687-1.207-1.137-1.863-2.836-.656-1.711-.656-3.996 0-4.184 2.437-6.598 2.45-2.426 6.715-2.426 1.488 0 3.035.364 1.559.351 3.352 1.207v2.754h-.211q-.364-.282-1.055-.739t-1.36-.761q-.808-.364-1.84-.598-1.019-.246-2.32-.246-2.93 0-4.64 1.887-1.7 1.875-1.7 5.086 0 3.386 1.782 5.273 1.781 1.875 4.851 1.875 1.125 0 2.239-.223 1.125-.222 1.968-.574v-4.277h-4.675v-2.04h6.972z"/></g><g aria-label="RGY" style="font-size:24px"><path d="M251.75 495h-3.012l-5.836-6.938h-3.27V495h-2.32v-17.45h4.887q1.582 0 2.637.212 1.055.199 1.898.726.95.598 1.477 1.512.539.902.539 2.297 0 1.887-.95 3.164-.948 1.266-2.613 1.91zm-5.426-12.54q0-.75-.27-1.323-.257-.586-.867-.985-.503-.34-1.195-.468-.691-.141-1.629-.141h-2.73v6.586h2.344q1.101 0 1.921-.188.82-.199 1.395-.726.527-.492.773-1.125.258-.645.258-1.63zM268.555 493.71q-1.43.657-3.13 1.15-1.687.48-3.269.48-2.039 0-3.738-.563-1.7-.562-2.895-1.687-1.207-1.137-1.863-2.836-.656-1.711-.656-3.996 0-4.184 2.437-6.598 2.45-2.426 6.715-2.426 1.489 0 3.035.364 1.559.351 3.352 1.207v2.754h-.211q-.363-.282-1.055-.739-.691-.457-1.359-.761-.809-.364-1.84-.598-1.02-.246-2.32-.246-2.93 0-4.64 1.887-1.7 1.875-1.7 5.086 0 3.386 1.781 5.273 1.781 1.875 4.852 1.875 1.125 0 2.238-.223 1.125-.222 1.969-.574v-4.277h-4.676v-2.04h6.973zM284.96 477.55l-6.14 9.798V495h-2.32v-7.406l-6.164-10.043h2.566l4.77 7.804 4.816-7.804z"/></g><g aria-label="RBY" style="font-size:24px"><path d="M522.828 495h-3.012l-5.836-6.938h-3.27V495h-2.32v-17.45h4.887q1.582 0 2.637.212 1.055.199 1.898.726.95.598 1.477 1.512.54.902.54 2.297 0 1.887-.95 3.164-.95 1.266-2.613 1.91zm-5.426-12.54q0-.75-.27-1.323-.257-.586-.866-.985-.504-.34-1.196-.468-.691-.141-1.629-.141h-2.73v6.586h2.344q1.101 0 1.922-.188.82-.199 1.394-.726.527-.492.774-1.125.257-.645.257-1.63zM538.238 489.633q0 1.3-.492 2.297-.492.996-1.324 1.64-.985.774-2.168 1.102-1.172.328-2.988.328h-6.188v-17.45h5.168q1.91 0 2.86.141.949.141 1.816.586.96.504 1.394 1.301.434.785.434 1.887 0 1.242-.633 2.12-.633.868-1.687 1.395v.094q1.77.363 2.789 1.559 1.02 1.183 1.02 3zm-3.902-7.863q0-.633-.211-1.067-.21-.433-.68-.703-.55-.316-1.336-.387-.785-.082-1.945-.082h-2.766v5.04h3q1.09 0 1.735-.106.644-.117 1.195-.469.55-.351.774-.902.234-.563.234-1.324zm1.488 7.957q0-1.055-.316-1.676-.317-.621-1.149-1.055-.562-.293-1.37-.375-.798-.094-1.946-.094h-3.645v6.493h3.07q1.524 0 2.497-.153.972-.164 1.594-.586.656-.457.96-1.043.305-.586.305-1.511zM553.883 477.55l-6.14 9.798V495h-2.321v-7.406l-6.164-10.043h2.566l4.77 7.804 4.816-7.804z"/></g><g aria-label="BYG" style="font-size:24px"><path d="M295.59 344.633q0 1.3-.492 2.297-.493.996-1.325 1.64-.984.774-2.168 1.102-1.171.328-2.988.328h-6.187v-17.45h5.168q1.91 0 2.859.141.95.141 1.816.586.961.504 1.395 1.301.434.785.434 1.887 0 1.242-.633 2.12-.633.868-1.688 1.395v.094q1.77.363 2.79 1.559 1.019 1.183 1.019 3zm-3.902-7.863q0-.633-.211-1.067-.211-.433-.68-.703-.55-.316-1.336-.387-.785-.082-1.945-.082h-2.766v5.04h3q1.09 0 1.734-.106.645-.117 1.196-.469.55-.351.773-.902.235-.563.235-1.324zm1.488 7.957q0-1.055-.317-1.676-.316-.621-1.148-1.055-.563-.293-1.371-.375-.797-.094-1.945-.094h-3.645v6.493h3.07q1.524 0 2.496-.153.973-.164 1.594-.586.656-.457.961-1.043.305-.586.305-1.511zM311.234 332.55l-6.14 9.798V350h-2.32v-7.406l-6.165-10.043h2.567l4.77 7.804 4.816-7.804zM328.203 348.71q-1.43.657-3.129 1.15-1.687.48-3.27.48-2.038 0-3.738-.563-1.699-.562-2.894-1.687-1.207-1.137-1.863-2.836-.657-1.711-.657-3.996 0-4.184 2.438-6.598 2.45-2.426 6.715-2.426 1.488 0 3.035.364 1.558.351 3.351 1.207v2.754h-.21q-.364-.282-1.055-.739-.692-.457-1.36-.761-.808-.364-1.84-.598-1.019-.246-2.32-.246-2.93 0-4.64 1.887-1.7 1.875-1.7 5.086 0 3.386 1.782 5.273 1.78 1.875 4.851 1.875 1.125 0 2.239-.223 1.125-.222 1.968-.574v-4.277h-4.676v-2.04h6.973z"/></g><g aria-label="RGB" style="font-size:24px"><path d="M490.906 350h-3.011l-5.836-6.938h-3.27V350h-2.32v-17.45h4.886q1.583 0 2.637.212 1.055.199 1.899.726.949.598 1.476 1.512.54.902.54 2.297 0 1.887-.95 3.164-.95 1.266-2.613 1.91zm-5.426-12.54q0-.75-.27-1.323-.257-.586-.866-.985-.504-.34-1.196-.468-.691-.141-1.628-.141h-2.73v6.586h2.343q1.101 0 1.922-.188.82-.199 1.394-.726.528-.492.774-1.125.257-.645.257-1.63zM507.71 348.71q-1.429.657-3.128 1.15-1.687.48-3.27.48-2.039 0-3.738-.563-1.699-.562-2.894-1.687-1.207-1.137-1.864-2.836-.656-1.711-.656-3.996 0-4.184 2.438-6.598 2.449-2.426 6.715-2.426 1.488 0 3.035.364 1.558.351 3.351 1.207v2.754h-.21q-.364-.282-1.055-.739-.692-.457-1.36-.761-.808-.364-1.84-.598-1.02-.246-2.32-.246-2.93 0-4.64 1.887-1.7 1.875-1.7 5.086 0 3.386 1.781 5.273 1.782 1.875 4.852 1.875 1.125 0 2.238-.223 1.125-.222 1.97-.574v-4.277h-4.677v-2.04h6.973zM524.926 344.633q0 1.3-.492 2.297-.493.996-1.325 1.64-.984.774-2.168 1.102-1.171.328-2.988.328h-6.187v-17.45h5.168q1.91 0 2.859.141.95.141 1.816.586.961.504 1.395 1.301.433.785.433 1.887 0 1.242-.632 2.12-.633.868-1.688 1.395v.094q1.77.363 2.79 1.559 1.019 1.183 1.019 3zm-3.903-7.863q0-.633-.21-1.067-.211-.433-.68-.703-.551-.316-1.336-.387-.785-.082-1.945-.082h-2.766v5.04h3q1.09 0 1.734-.106.645-.117 1.196-.469.55-.351.773-.902.234-.563.234-1.324zm1.489 7.957q0-1.055-.317-1.676-.316-.621-1.148-1.055-.563-.293-1.371-.375-.797-.094-1.946-.094h-3.644v6.493h3.07q1.524 0 2.496-.153.973-.164 1.594-.586.656-.457.961-1.043.305-.586.305-1.511z"/></g><path d="M342.277 524.633q0 1.3-.492 2.297-.492.996-1.324 1.64-.984.774-2.168 1.102-1.172.328-2.988.328h-6.188v-17.45h5.168q1.91 0 2.86.141.949.141 1.816.586.96.504 1.394 1.301.434.785.434 1.887 0 1.242-.633 2.12-.633.868-1.687 1.395v.094q1.77.363 2.789 1.559 1.02 1.183 1.02 3zm-3.902-7.863q0-.633-.21-1.067-.212-.433-.68-.703-.551-.316-1.337-.387-.785-.082-1.945-.082h-2.765v5.04h3q1.09 0 1.734-.106.644-.117 1.195-.469.551-.351.774-.902.234-.563.234-1.324zm1.488 7.957q0-1.055-.316-1.676-.317-.621-1.149-1.055-.562-.293-1.37-.375-.798-.094-1.946-.094h-3.645v6.493h3.07q1.524 0 2.497-.153.973-.164 1.594-.586.656-.457.96-1.043.305-.586.305-1.511z" aria-label="B" style="font-size:24px"/><path d="M472.594 528.71q-1.43.657-3.13 1.15-1.687.48-3.269.48-2.039 0-3.738-.563-1.7-.562-2.894-1.687-1.208-1.137-1.864-2.836-.656-1.711-.656-3.996 0-4.184 2.437-6.598 2.45-2.426 6.715-2.426 1.489 0 3.035.364 1.56.351 3.352 1.207v2.754h-.21q-.364-.282-1.056-.739-.691-.457-1.359-.761-.809-.364-1.84-.598-1.02-.246-2.32-.246-2.93 0-4.64 1.887-1.7 1.875-1.7 5.086 0 3.386 1.781 5.273 1.782 1.875 4.852 1.875 1.125 0 2.238-.223 1.125-.222 1.969-.574v-4.277h-4.676v-2.04h6.973z" aria-label="G" style="font-size:24px"/><g aria-label="ALL" style="font-size:24px"><path d="M394.54 450h-2.474l-1.71-4.863h-7.547L381.098 450h-2.356l6.352-17.45h3.094zm-4.9-6.855-3.058-8.567-3.07 8.567zM408.227 450h-11.04v-17.45h2.32v15.387h8.72zM421.586 450h-11.04v-17.45h2.321v15.387h8.719z"/></g><g aria-label="NONE" style="font-size:36px"><path d="M371.005 80h-4.307l-12.41-23.414V80h-3.252V53.826h5.397l11.32 21.375V53.826h3.252zM397.478 56.832q1.6 1.758 2.443 4.307.861 2.548.861 5.783 0 3.234-.879 5.8-.861 2.55-2.425 4.255-1.618 1.775-3.832 2.671-2.198.897-5.028.897-2.76 0-5.027-.914-2.25-.914-3.832-2.654-1.582-1.74-2.444-4.272-.843-2.531-.843-5.783 0-3.2.843-5.73.844-2.55 2.461-4.36 1.547-1.723 3.832-2.637 2.303-.914 5.01-.914 2.813 0 5.045.932 2.25.914 3.815 2.619zm-.317 10.09q0-5.098-2.285-7.858-2.285-2.777-6.24-2.777-3.99 0-6.276 2.777-2.267 2.76-2.267 7.858 0 5.15 2.32 7.892 2.32 2.725 6.223 2.725 3.902 0 6.205-2.725 2.32-2.742 2.32-7.892zM426.27 80h-4.306l-12.41-23.414V80h-3.252V53.826h5.396l11.32 21.375V53.826h3.253zM450.476 80H433.23V53.826h17.245v3.094h-13.764v7.172h13.764v3.094h-13.764v9.72h13.764z"/></g><text xml:space="preserve" x="180.844" y="240.878" style="font-weight:700;font-size:13.3333px;font-family:sans-serif;-inkscape-font-specification:&quot;sans-serif, Bold&quot;;text-align:center;text-anchor:middle;fill:#000;stroke-width:2"/><text xml:space="preserve" x="496.579" y="340.935" style="font-weight:700;font-size:13.3333px;font-family:sans-serif;-inkscape-font-specification:&quot;sans-serif, Bold&quot;;text-align:center;text-anchor:middle;fill:#000;stroke-width:2"/></svg>